<?xml version="1.0" encoding="utf-8"?>
<!-- Generator: Adobe Illustrator 27.0.0, SVG Export Plug-In . SVG Version: 6.00 Build 0)  -->
<svg version="1.1" id="Capa_1" xmlns="http://www.w3.org/2000/svg" xmlns:xlink="http://www.w3.org/1999/xlink" x="0px" y="0px"
	 viewBox="0 0 35.9 36.4" style="enable-background:new 0 0 35.9 36.4;" xml:space="preserve">
<style type="text/css">
	.st0{fill:#DAC6A1;}
</style>
<path class="st0" d="M31.1,16.9c-0.1-0.9-0.3-1.7-0.6-2.5c-0.1-0.1-0.1-0.1-0.2-0.1c0,0-0.1,0-0.1,0v0.1c0.3,0.7,0.5,1.5,0.5,2.3
	c0,0.6,0,1.1-0.2,1.7c0,0.4,0,0.8,0,1.2c0,0.2-0.1,0.2-0.2,0.2s-0.2-0.1-0.2-0.2c0-0.5,0-0.9-0.1-1.2l0,0c0-0.6-0.1-1.1-0.2-1.7
	c-0.2-0.5-0.4-0.9-0.8-1.3c-0.2-0.3-0.3-0.6-0.4-1c0-0.1,0-0.1-0.1-0.2s0-0.2-0.1-0.3l-0.2-0.5c0,0-0.1-0.1-0.1,0
	c-0.1,0-0.2,0-0.2,0.1c0,0.1,0,0.1,0,0.2l0.4,1.5c0.1,0.3,0.3,0.6,0.5,0.8l0,0c0.1,0.1,0.2,0.3,0.3,0.4c0.2,0.2,0.2,0.5,0.3,0.7
	c0.1,0.5,0.1,1.3,0.2,2.3l0.3,1.5c0.1,0.6,0.1,1.1-0.1,1.7c0,0.2,0,0.3,0,0.3l0,0c0,0,0.1,0,0.3-0.2c0.4-0.5,0.4-2.3,0.4-3.7
	c0-0.4,0.1-0.8,0.2-1.1C31,17.5,31,17.2,31.1,16.9"/>
<path class="st0" d="M29.6,14.5v-0.3c0,0,0-0.1,0-0.1c-0.1-0.1-0.2-0.2-0.3-0.2h-0.1c0,0,0,0,0,0.1c0.1,0.5,0.3,1.1,0.7,1.4h0.1
	c0,0,0,0,0-0.1l-0.2-0.5C29.7,14.7,29.6,14.6,29.6,14.5"/>
<path class="st0" d="M27.7,18.6L27.7,18.6c-0.1,0-0.1-0.1-0.2-0.2c-0.2-0.4-0.3-0.9-0.4-1.3c0-0.2-0.1-0.4-0.1-0.6
	c-0.1-0.3-0.2-0.6-0.5-0.8c-0.6-0.4-1-1-1.3-1.7c-0.1-0.1-0.2-0.2-0.2-0.2s-0.1,0-0.1,0.1c0,0.1,0,0.2,0,0.3c0.1,0.4,0.3,0.7,0.5,1
	c0.1,0.1,0.1,0.2,0.2,0.2h0c0.3,0.2,0.5,0.5,0.8,0.8c0.2,0.2,0.2,0.5,0.3,0.8c0,0.1,0,0.1,0,0.2l0,0c0.1,0.8,0.4,1.5,0.8,2.1
	c0.1,0.2,0.2,0.5,0.2,0.7l0.1,0.9c0,0.2,0.1,0.3,0.1,0.3h0c0-0.1,0.1-0.2,0.1-0.2c0-0.9,0-1.8-0.1-2.7c-0.1-0.7-0.3-1.4-0.6-2.1
	c-0.1-0.1-0.1-0.1-0.2-0.1l0,0c0,0,0,0.1,0,0.2c0.3,0.7,0.5,1.4,0.5,2.2C27.8,18.5,27.8,18.5,27.7,18.6L27.7,18.6z"/>
<path class="st0" d="M26.1,14c0-0.1-0.1-0.1-0.2-0.1c0,0-0.1,0-0.1,0l0,0c0.1,0.4,0.3,0.8,0.7,1.1h0.1l0,0c0,0,0,0,0-0.1
	c-0.2-0.3-0.4-0.6-0.4-1"/>
<path class="st0" d="M29,18.7L29,18.7c0,0-0.1,0-0.2-0.1c0-0.1-0.1-0.1-0.1-0.2l-0.3-1.6c-0.1-0.4-0.3-0.9-0.6-1.2
	c-0.5-0.6-0.9-1.2-1.1-1.9c-0.1-0.2-0.1-0.3-0.2-0.3s-0.1,0.1-0.1,0.2c0,0.1,0,0.2,0,0.2c0.2,0.7,0.5,1.3,1,1.8
	c0.3,0.2,0.5,0.6,0.5,1l0,0c0,0.2,0.1,0.4,0.1,0.6l0,0c0.1,0.8,0.4,1.6,0.6,2.4c0.1,0.2,0.2,0.5,0.2,0.7c0,0.6,0.1,0.9,0.1,1.2
	s0.1,0.3,0.1,0.3s0.1-0.1,0.1-0.3c0.1-1,0.1-2,0-3c0-0.5-0.1-1.1-0.2-1.6c0-0.2-0.1-0.5-0.3-0.6c-0.1-0.1-0.1-0.1-0.2-0.1
	c0,0.1,0,0.1,0,0.2c0.2,0.7,0.3,1.3,0.4,2c0,0.1,0,0.2-0.1,0.2L29,18.7z"/>
<path class="st0" d="M28,14.9c-0.1-0.2-0.2-0.4-0.3-0.7l-0.1-0.4c0-0.1,0-0.1-0.1-0.2c-0.1-0.1-0.1-0.1-0.2-0.1c0,0-0.1,0-0.1,0
	c0,0,0,0.1,0,0.1c0.1,0.6,0.4,1.1,0.8,1.5l0,0l0.1,0l0,0c0,0,0,0,0-0.1C28,15,28,14.9,28,14.9"/>
<path class="st0" d="M26.3,18.6L26.3,18.6c0,0.1,0.1,0.2,0.1,0.3c0,0.1,0.1,0.2,0.1,0.2c0,0,0.1,0.1,0.1,0.1s0.1-0.1,0.1-0.1
	c0-0.1,0-0.2,0-0.2c0.1-1-0.2-2-0.7-2.9c-0.1-0.1-0.1-0.1-0.1-0.1s0,0,0,0.1c0,0.1,0,0.1,0,0.2c0.1,0.2,0.2,0.5,0.2,0.7
	c0,0.1,0,0.1,0,0.2l0,0l0,0C26.1,17,26,17,26,16.9c-0.1-0.4-0.4-0.8-0.8-1c-0.4-0.3-0.8-0.6-1.2-0.9c-0.1-0.2-0.2-0.3-0.3-0.5
	c0,0,0-0.1-0.1-0.1s-0.1,0.1-0.2,0.2s0,0.1,0,0.1c0.2,0.4,0.6,0.8,1,1c0.6,0.3,1.1,0.7,1.4,1.3C26.1,17.7,26.2,18.2,26.3,18.6"/>
<path class="st0" d="M24.2,14.2c-0.1,0-0.1,0-0.1,0.1l0,0c0.2,0.3,0.5,0.6,0.8,0.8h0.1l0,0c0,0,0,0,0-0.1c-0.2-0.2-0.4-0.5-0.5-0.8
	C24.3,14.2,24.2,14.2,24.2,14.2"/>
<path class="st0" d="M22.8,15.9L22.8,15.9c0.2,0.1,0.3,0.1,0.5,0.2c0.2,0.1,0.3,0.2,0.4,0.3c0.3,0.3,0.6,0.7,0.9,1l0,0
	c0.2,0.3,0.4,0.6,0.6,0.8c0,0,0.1,0.1,0.1,0.1c0,0,0.1,0,0.1,0c0,0,0-0.1,0-0.1c-0.2-0.6-0.4-1.1-0.7-1.7c-0.1-0.1-0.2-0.2-0.3-0.1
	l0,0l0,0l0.2,0.3v0.1l0,0c0,0-0.1,0-0.1,0l0,0h-0.1l0,0l0,0c-0.1-0.2-0.3-0.4-0.4-0.5c-0.1-0.1-0.2-0.1-0.2-0.2l-0.6-0.2
	c-0.2-0.1-0.3-0.2-0.4-0.3c-0.1-0.1-0.3-0.2-0.5-0.4h-0.1c0,0,0,0-0.1,0c0,0.1,0,0.1,0,0.2c0.1,0.2,0.3,0.3,0.5,0.4
	C22.6,15.7,22.6,15.8,22.8,15.9"/>
<path class="st0" d="M28.5,22.1c-0.4-0.3-0.7-0.5-1-0.6c-1.6-1.2-3.3-2.4-5-3.6c0,0-0.1,0-0.1,0l0,0c0,0.1,0.1,0.2,0.2,0.3l5.2,3.9
	H28c0.1,0,0.1,0.1,0.2,0.2c0,0,0.1,0.1-0.1,0.2c-0.2,0.1-0.3,0.1-0.5,0.1c-0.3,0-0.6-0.1-0.9-0.3c-1.4-1.1-2.8-2.2-4.1-3.3
	c0,0-0.1,0-0.1,0l0,0c0,0.1,0,0.1,0,0.2c0,0.1,0.1,0.1,0.1,0.2c1.4,1.1,2.7,2.2,4,3.3c0.3,0.2,0.6,0.2,0.9,0.2
	c0.4,0,0.8-0.2,1.1-0.5C28.7,22.3,28.7,22.2,28.5,22.1C28.6,22.1,28.6,22.1,28.5,22.1"/>
<path class="st0" d="M26.6,21.8c0.2,0.1,0.4,0.3,0.6,0.4h0.1h0.1c0,0,0-0.1-0.1-0.1l-4.7-3.6h-0.1l0,0c0,0.1,0.1,0.2,0.1,0.3
	L26.6,21.8z"/>
<path class="st0" d="M25.5,22l-3-2.6c0,0-0.1,0-0.1,0l0,0c0,0,0,0.1,0.1,0.2c0.9,0.8,1.9,1.6,2.9,2.5c0.1,0.1,0.3,0.2,0.4,0.3
	c0,0,0.1,0.1,0.2,0c0.1,0,0.1,0,0.1-0.1s0,0,0,0L25.5,22z"/>
<path class="st0" d="M23.1,15.4h0.1c0,0,0,0,0-0.1c0-0.1-0.1-0.1-0.1-0.2C23,15.1,22.9,15,22.8,15h-0.2c0,0,0,0-0.1,0V15
	C22.7,15.2,22.9,15.3,23.1,15.4"/>
<path class="st0" d="M26,23.2c0.2,0,0.3-0.1,0.5-0.1c0,0,0.1-0.1,0-0.1s0-0.1-0.1-0.1h-0.1h-0.1h0H26c-0.3,0-0.5-0.1-0.7-0.3
	C24.6,22,24,21.4,23.5,21l0,0c-0.4-0.4-0.8-0.7-1.2-1c0,0,0,0-0.1,0l0,0c0,0,0,0.1,0,0.1c0,0,0.1,0.1,0.1,0.1l0.2,0.2
	c0.9,0.9,1.8,1.6,2.6,2.4c0.2,0.2,0.4,0.3,0.6,0.4C25.8,23.2,26,23.2,26,23.2"/>
<path class="st0" d="M21.9,20.2c0.7,0.7,1.4,1.5,2.2,2.2c0.1,0.2,0.3,0.3,0.5,0.3l0,0c0,0,0-0.1-0.1-0.1c-0.7-0.6-1.4-1.3-2.1-2
	c0,0-0.1-0.1-0.1-0.1v0c-0.1-0.1-0.3-0.3-0.4-0.4h-0.1C21.8,20.1,21.8,20.2,21.9,20.2"/>
<path class="st0" d="M24.9,23.3c0.1,0,0.1,0,0.2,0c0,0,0,0,0-0.1c0-0.1-0.1-0.1-0.1-0.1c-0.3,0-0.6-0.1-0.9-0.3
	c-0.8-0.7-1.6-1.5-2.4-2.3c0,0,0,0-0.1,0l0,0c0,0.1,0,0.2,0,0.2c0,0.1,0.1,0.1,0.1,0.1l0,0c0.4,0.5,1,1,1.8,1.8
	c0.2,0.2,0.4,0.4,0.7,0.6C24.4,23.3,24.6,23.3,24.9,23.3"/>
<path class="st0" d="M23.8,23L23.8,23c0-0.1-0.1-0.1-0.1-0.1c-0.4-0.1-0.9-0.6-1.4-1.2L22,21.3h0v0c0,0,0,0.1,0,0.1l1.1,1.2
	C23.2,22.9,23.5,23,23.8,23L23.8,23z"/>
<path class="st0" d="M10.2,9.7L10.2,9.7c0,0,0.1,0,0.1,0c0.1,0,0.1,0,0.2,0c0,0,0.1,0,0.1,0c0,0,0.1,0,0.1,0
	c0.1-0.1,0.2-0.2,0.4-0.3c0.1,0,0.1,0,0.2,0c0.2,0,0.3,0.1,0.4,0.2c0,0,0.1,0.1,0.1,0.2c0,0-0.1,0.1-0.2,0.1h-0.1
	c-0.1,0-0.3,0-0.4,0.1c-0.4,0.1-0.6,0.4-0.6,0.8l0,0c0,0.1,0,0.3-0.1,0.3c-0.1,0-0.1,0-0.2-0.1c-0.2-0.1-0.3-0.3-0.3-0.6
	C9.9,10.1,10,9.9,10.2,9.7 M9.7,10.1c-0.1,0.2-0.1,0.4-0.1,0.5c0.2,0.5,0.6,0.8,1.1,0.8l0,0c0.1,0,0.2,0,0.3-0.1s0-0.1-0.1-0.1
	c-0.2-0.2-0.4-0.5-0.3-0.7c0.1-0.3,0.4-0.5,0.7-0.4c0.1,0,0.1,0,0.2,0c0.2,0,0.3,0,0.4-0.1c0.2-0.2,0.4-0.3,0.6-0.3
	c0.1,0,0.2,0,0.3,0l0,0c0.1,0.1,0.1,0.2,0,0.3c0,0,0,0,0,0c-0.1,0.1-0.2,0.1-0.2,0.1c-0.2,0-0.3,0.1-0.5,0.2c0,0,0,0,0,0.1
	c0,0,0,0,0.1,0h0.2h0.2c0.3-0.1,0.6-0.3,0.9-0.6c0.1-0.1,0.1-0.1,0-0.2c-0.2-0.2-0.5-0.3-0.8-0.3c-0.1,0-0.2,0-0.3,0
	c-0.1,0-0.3,0.1-0.4,0.1c-0.1,0-0.2,0-0.3,0l-0.6-0.2C11,9,10.9,9,10.8,9c-0.1,0-0.2,0-0.2,0.1l0,0l0.1,0c0.1,0.1,0.1,0.1,0.1,0.2
	c0,0.1-0.1,0.1-0.2,0.1h-0.1c-0.1,0-0.1,0-0.2,0.1C10,9.6,9.8,9.8,9.7,10.1"/>
<path class="st0" d="M10.8,8.7c0.1,0.1,0.3,0.1,0.5,0.2h0c0,0,0.1,0,0.1-0.1c0.1-0.1,0.1-0.2,0.2-0.4c0-0.2,0.1-0.4,0.3-0.5l0.1-0.1
	c0.1-0.1,0.1-0.2,0.2-0.3c0.1-0.2,0-0.4-0.2-0.6V7c-0.1,0.4-0.3,0.7-0.6,0.9L11.2,8c-0.1,0.1-0.2,0.2-0.4,0.3
	c-0.1,0.1-0.1,0.2-0.1,0.2C10.7,8.6,10.8,8.6,10.8,8.7"/>
<path class="st0" d="M11.9,8.1C11.9,8.1,11.9,8.1,11.9,8.1c0.2,0.4,0.1,0.6-0.3,0.7c-0.1,0-0.1,0.1,0,0.1c0,0,0.1,0,0.1,0
	c0.3-0.1,0.4-0.3,0.3-0.6c0,0,0-0.1-0.1-0.1C12.1,8.1,12,8.1,11.9,8.1"/>
<path class="st0" d="M12.4,7.3c0.1,0,0.1-0.1,0.1-0.2c0-0.1,0-0.3,0.1-0.3c0.1,0,0.1,0.1,0.1,0.2c0,0,0.1,0,0.1-0.1
	c0-0.2-0.1-0.4-0.2-0.5l0,0c0,0,0,0,0,0.1C12.5,6.7,12.5,7,12.4,7.3C12.5,7.3,12.5,7.3,12.4,7.3"/>
<path class="st0" d="M12.4,7.9L12.4,7.9c0.9-0.4,1.1-0.9,1.1-1.2c0-0.2,0-0.5-0.2-0.7l0,0c0.1,0.4,0,0.8-0.2,1.1
	c-0.2,0.2-0.4,0.3-0.6,0.5l-0.1,0.1c0,0,0,0.1,0,0.1C12.3,7.9,12.4,7.9,12.4,7.9"/>
<path class="st0" d="M13.5,7.9c-0.2,0.2-0.4,0.3-0.7,0.4c-0.1,0-0.2,0.1-0.3,0.2c0,0,0,0,0,0.1h0c0.4-0.2,0.9-0.4,1.2-0.7
	C14,7.7,14,7.5,13.9,7.3c0,0,0,0-0.1,0c0,0-0.1,0-0.1,0c-0.2,0.2-1.1,0.6-1.2,0.8c-0.2,0.1-0.1,0.1-0.1,0.1c0,0,0,0,0.1,0
	c0,0,0,0,0,0c0.1,0,0.7-0.4,0.8-0.5s0.2-0.1,0.2,0S13.6,7.8,13.5,7.9"/>
<path class="st0" d="M12.3,9.1c0.1,0,0.2,0,0.3-0.1c0.4-0.2,0.8-0.4,1.2-0.5c0,0,0.1,0,0.1,0c0.1,0,0.1,0.2,0.1,0.2c0,0,0,0-0.1,0.1
	L13.4,9l0,0c0,0,0,0,0.2,0l0,0c0.5-0.1,0.7-0.3,0.6-0.6c0-0.1-0.1-0.2-0.3-0.2c-0.2,0-0.3,0-0.4,0.1c-0.3,0.1-0.6,0.3-0.9,0.4
	c-0.1,0-0.2,0.1-0.3,0.1C12.3,8.9,12.1,9.1,12.3,9.1"/>
<path class="st0" d="M13.9,6.8c0.1-0.1,0.3-0.5,0.4-0.3c0,0.2,0,0.4-0.1,0.5c-0.1,0.1,0,0.1,0.1,0.2l0,0c0,0,0,0,0,0
	c0.1-0.2,0.2-0.5,0.1-0.8c0-0.2-0.1-0.3-0.2-0.4h-0.1c0,0-0.1,0-0.1,0.1L14,6.4c0,0.1-0.1,0.2-0.2,0.3c-0.1,0.1-0.1,0.1-0.1,0.2
	c0,0.1,0,0,0.1,0"/>
<path class="st0" d="M14.7,7.2c0.3,0.1,0.5,0.2,0.8,0.3c0.1,0,0.1,0.1,0.2,0.1c0.2,0.1,0.4,0.2,0.6,0.3h0.1c0,0,0.1,0,0.1-0.1l0,0
	c0.2-0.2,0.3-0.4,0.3-0.6l0,0l0,0c-0.1,0-0.2,0-0.2,0c-0.1,0-0.2,0-0.3,0c-0.4-0.2-0.9-0.4-1.3-0.4h-0.1l0,0l0,0v0.1l0,0
	c0.5,0.1,1,0.3,1.4,0.6l0,0c0,0,0.1,0.1,0.1,0.1l0,0c0,0-0.1,0-0.1,0h-0.1h-0.1c-0.4-0.2-0.9-0.4-1.3-0.5l0,0c0,0,0,0-0.1,0
	c0,0,0,0.1,0,0.1"/>
<path class="st0" d="M14.1,9.6c-0.1,0-0.2-0.2-0.2-0.3l0,0h0c0,0,0,0.1,0,0.1c0,0.2,0.1,0.3,0.2,0.4c0,0,0.1,0,0.1,0
	c0.1,0,0.2-0.1,0.2-0.2c0-0.2-0.1-0.4-0.2-0.5l0,0c0.1,0.1,0.1,0.2,0.1,0.4C14.3,9.5,14.2,9.5,14.1,9.6"/>
<path class="st0" d="M14.9,9.2c-0.1,0-0.3-0.3-0.3-0.4h-0.1l0,0c0,0,0,0.1,0,0.1c0,0.2,0.1,0.4,0.3,0.5c0,0,0.1,0.1,0.2,0
	c0.2,0,0.3-0.1,0.4-0.3c0.1-0.1,0.1-0.2,0-0.3c-0.3-0.3-0.6-0.5-0.9-0.6l0,0c0.1,0.1,0.2,0.2,0.3,0.2l0,0c0.1,0.1,0.3,0.2,0.4,0.3
	c0,0.1,0,0.1,0,0.2C15.1,9.2,15,9.2,14.9,9.2"/>
<path class="st0" d="M14.3,8L14.3,8c0.4,0.3,0.9,0.6,1.3,0.8c0.1,0,0.1,0,0.2,0c0.1,0,0.1,0,0.2-0.1c0.1-0.1,0.2-0.3,0.1-0.5
	c-0.4-0.4-1-0.7-1.5-0.8l0,0l0,0c0,0,0,0,0.1,0.1c0.4,0.1,0.7,0.3,1.1,0.6l0,0c0.1,0.1,0.1,0.1,0.1,0.2c0,0.1-0.1,0.1-0.1,0.1h-0.1
	c-0.1,0-0.3-0.1-0.4-0.1h-0.1l0,0C14.9,8.1,14.6,8,14.3,8L14.3,8z"/>
<path class="st0" d="M25.4,7.1c0,0,0,0.1,0.1,0.1c2,1.5,3.5,3.5,4.5,5.9c0,0.1,0,0.2,0,0.2c0,0-0.1,0-0.1,0c-0.1,0-0.2-0.1-0.4-0.1
	c-0.4-0.3-0.8-0.6-1.1-1.1c-1.1-1.7-2.5-3.3-4.2-4.5c0,0-0.1,0-0.1,0l0,0c0,0.1,0,0.2,0.1,0.3c1.7,1.3,3.2,3,4.3,4.8
	c0.5,0.7,1.3,1.1,2.2,1.1H31c0.2,0,0.2-0.1,0.2-0.1s0,0-0.1-0.1c-0.4-0.3-0.7-0.7-0.8-1.2c-1-2.2-2.6-4.1-4.6-5.4c0,0-0.1,0-0.1,0
	C25.5,7.1,25.4,7.1,25.4,7.1"/>
<path class="st0" d="M29.2,12.8c0.1,0.1,0.1,0.1,0.2,0.1c0,0,0,0,0.1,0c0-0.1,0-0.2-0.1-0.3c-1.1-2-2.6-3.7-4.5-5.1
	c-0.1,0-0.1,0-0.2,0c0,0-0.1,0-0.1,0c0,0,0,0.1,0.1,0.1C26.5,9.1,28,10.8,29.2,12.8"/>
<path class="st0" d="M27.3,12.8c-0.1,0-0.2-0.1-0.3-0.2c-0.9-1.2-1.9-2.3-3-3.2l0,0l0,0C24,9.4,24,9.6,24,9.7c0.7,0.7,1.4,1.4,2,2.1
	l0,0c0.3,0.4,0.7,0.8,1.1,1.2c0.1,0.1,0.3,0.1,0.4,0.1c0.1,0,0.2,0,0.3-0.1c0-0.1,0-0.2,0-0.3C27,11,25.7,9.6,24.2,8.5
	c0,0-0.1,0-0.1,0l0,0c0,0.1,0,0.3,0.1,0.4c1.2,1,2.3,2.2,3.2,3.6C27.5,12.5,27.5,12.6,27.3,12.8C27.4,12.7,27.3,12.8,27.3,12.8"/>
<path class="st0" d="M23.7,10.1L23.7,10.1c0,0.1,0,0.2,0,0.2c0.8,0.7,1.5,1.5,2.2,2.3c0.1,0.1,0.1,0.2,0,0.3
	c-0.1,0.2-0.3,0.2-0.5,0.2c0,0-0.1,0-0.1-0.1c-0.5-0.4-1-0.9-1.4-1.4c-0.2-0.2-0.4-0.4-0.6-0.6h0l0,0c0,0.1,0,0.2,0,0.2l1.5,1.6
	c0.2,0.2,0.4,0.4,0.7,0.5h0.3c0.2,0,0.3-0.1,0.5-0.2c0.1-0.2,0.1-0.4,0-0.5C25.6,11.6,24.8,10.7,23.7,10.1L23.7,10.1z"/>
<path class="st0" d="M23.4,10.4c0,0.1,0,0.1,0,0.2c0.6,0.7,1.3,1.4,2.1,2h0l0,0c0,0,0,0,0-0.1C24.8,11.7,24.1,11,23.4,10.4
	L23.4,10.4z"/>
<path class="st0" d="M23.1,11.6c0,0-0.1,0-0.1,0c0,0-0.1,0-0.1,0.1c0,0.1,0,0.1,0,0.2c0.5,0.4,0.9,0.8,1.2,1.3
	c0.1,0.1,0.1,0.2,0,0.3c-0.1,0.1-0.2,0.2-0.3,0.1c-0.1,0-0.2,0-0.3-0.1c-0.4-0.3-0.8-0.6-1.2-1l-0.1-0.1c0,0,0,0-0.1,0.1
	c0,0.1,0,0.1,0,0.2c0.4,0.5,0.8,0.9,1.3,1.2c0.2,0,0.3,0.1,0.5,0.1c0.2,0,0.3,0,0.4-0.1c0.1-0.2,0.1-0.4,0-0.6
	C24.1,12.6,23.7,12.1,23.1,11.6"/>
<path class="st0" d="M22.6,12.1l1.2,1.2h0.1h0.1l0,0c-0.4-0.5-0.8-1-1.4-1.3C22.5,12.1,22.5,12.2,22.6,12.1"/>
<path class="st0" d="M22.5,14.6c0.2,0,0.5-0.1,0.6-0.3c0.1-0.1,0.1-0.3,0-0.4c-0.3-0.4-0.6-0.8-1-1.1l0,0c0,0,0,0-0.1,0
	c0,0,0,0.1,0,0.1c0.3,0.3,0.5,0.5,0.7,0.9c0.1,0.1,0.1,0.2,0,0.3c-0.1,0.1-0.2,0.2-0.3,0.2c-0.1,0-0.2,0-0.2,0
	c-0.3-0.2-0.5-0.4-0.7-0.7l0,0c0,0,0,0-0.1,0c0,0,0,0.1,0,0.1c0.2,0.3,0.6,0.6,0.9,0.8C22.4,14.7,22.5,14.7,22.5,14.6"/>
<path class="st0" d="M22.1,13.9c0,0,0.1,0,0.1,0c0,0,0.1,0,0.1-0.1c0-0.1,0-0.1,0-0.2c-0.2-0.2-0.4-0.4-0.6-0.6h-0.1
	c-0.1,0-0.1,0-0.1,0.1c0,0,0,0,0,0c0,0,0,0.1,0.1,0.2C21.8,13.6,22,13.8,22.1,13.9"/>
<path class="st0" d="M21.7,14.6L21.1,14h0c0,0-0.1,0-0.1,0c0,0,0,0.1,0,0.1l0.4,0.4c0.1,0,0.1,0.1,0.1,0.2c0,0.1-0.1,0.2-0.2,0.3
	l0,0c-0.1,0.1-0.1,0.1-0.2,0.2c0,0,0,0.1,0,0.1c0,0,0,0.1,0.1,0h0.1l0.5-0.4C21.7,14.9,21.7,14.7,21.7,14.6"/>
<path class="st0" d="M20.9,14.8L20.9,14.8L20.9,14.8C21,14.8,21,14.8,20.9,14.8l-0.2-0.6h-0.1c0,0-0.1,0-0.1,0.1v0L20.9,14.8z"/>
<path class="st0" d="M21,6.5c0.1,0.1,0.1,0.2,0.2,0.2C22,7,22.7,7.3,23.4,7.8c0.1,0.1,0.1,0.2,0.1,0.2c0,0.1-0.1,0.1-0.2,0.1
	c-0.1,0-0.1,0-0.2-0.1c-0.5-0.4-1.1-0.7-1.7-0.9l0,0c0,0.1,0,0.1,0.1,0.2c0.7,0.3,1.3,0.7,1.9,1.1c0.1,0.1,0.2,0.1,0.2,0.1
	c0.1,0,0.2-0.1,0.2-0.1c0.1-0.4,0-0.7-0.5-1C22.5,7,21.8,6.7,21,6.5L21,6.5z"/>
<path class="st0" d="M21.5,7.8L21.5,7.8c0,0.1,0,0.2,0.1,0.2c0.1,0.1,0.4,0.2,0.6,0.4c0.4,0.2,0.8,0.4,1.1,0.8
	c0.1,0.1,0.1,0.3,0,0.4c0,0.1-0.1,0.1-0.2,0.1c-0.1,0-0.1,0-0.2-0.1L21.8,9l0,0c0,0.1,0.1,0.3,0.2,0.3c0.2,0.2,0.5,0.4,0.8,0.5h0.1
	C22.9,9.9,23,10,23.2,10c0.1,0,0.1,0,0.2,0c0.2-0.3,0.3-0.6,0.2-0.9C22.9,8.5,22.2,8,21.5,7.8"/>
<path class="st0" d="M22.7,9.3L22.7,9.3c0.1,0,0.2,0,0.2-0.1c-0.4-0.3-0.8-0.6-1.3-0.8c0,0,0,0.1,0,0.1C22,8.9,22.3,9.1,22.7,9.3"/>
<path class="st0" d="M21.7,10.9l0.6,0.5c0.1,0,0.1,0.1,0.2,0.1c0.1,0,0.1,0,0.2-0.1c0.1-0.1,0.2-0.2,0.3-0.4c0.1-0.2,0-0.5-0.2-0.6
	l-0.9-0.6l0,0l0,0c0,0.1,0,0.1,0,0.2c0.2,0.2,0.5,0.4,0.7,0.6c0.1,0.1,0.1,0.2,0.1,0.4c0,0.1-0.1,0.1-0.2,0.1c-0.1,0-0.1,0-0.2-0.1
	l-0.5-0.3c0,0-0.1,0-0.1,0.1C21.6,10.8,21.6,10.8,21.7,10.9"/>
<path class="st0" d="M22.2,10.7c0,0,0.1,0,0.1-0.1c0,0,0-0.1,0-0.1l-0.4-0.2h-0.1v0.1L22.2,10.7L22.2,10.7z"/>
<path class="st0" d="M20.9,12.1c0,0,0,0.1,0,0.2l0.6,0.5c0,0,0.1,0,0.1,0c0.1,0,0.2-0.1,0.3-0.1l0.1-0.1c0.2-0.3,0.3-0.5,0.1-0.8
	c-0.2-0.2-0.4-0.4-0.6-0.5c0,0,0,0-0.1,0c0,0.1,0,0.1,0,0.2l0.3,0.4c0.1,0.1,0.1,0.2,0,0.4c0,0.1-0.1,0.2-0.2,0.2c0,0-0.1,0-0.1,0
	L21,12L20.9,12.1C20.9,12,20.9,12,20.9,12.1"/>
<path class="st0" d="M21.1,11.7c0,0,0,0.1,0,0.1l0.2,0.2h0.1c0,0,0.1,0,0.1-0.1c0,0,0-0.1,0-0.1l-0.2-0.2l0,0
	C21.2,11.6,21.2,11.7,21.1,11.7"/>
<path class="st0" d="M19.9,13C19.9,13,19.9,13,19.9,13c-0.1,0.1-0.1,0.2-0.1,0.2l0.5,0.6c0,0.1,0.1,0.1,0.2,0.1
	c0.2-0.1,0.5-0.2,0.6-0.4c0.1-0.1,0.1-0.3,0-0.5c-0.1-0.2-0.3-0.4-0.5-0.6l0,0c0,0,0,0-0.1,0.1c0,0.1,0,0.2,0,0.2l0.2,0.3
	c0.1,0.1,0.1,0.3,0,0.4c-0.1,0.1-0.1,0.2-0.2,0.2c-0.1,0-0.1,0-0.2-0.1L20.1,13L19.9,13z"/>
<path class="st0" d="M20.5,13.1C20.5,13.1,20.6,13.1,20.5,13.1c0.1-0.1,0.1-0.1,0.1-0.2l-0.3-0.2l0,0c0,0-0.1,0-0.1,0
	c0,0,0,0.1,0,0.1L20.5,13.1L20.5,13.1z"/>
<path class="st0" d="M21.4,19.7c0,0.1,0,0.2,0.1,0.2c0.1,0,0.2-0.1,0.2-0.1c0.5-0.7,0.4-2.9-0.3-4h0c0,0-0.1,0-0.1,0.1
	c0,0.1,0,0.1,0,0.2c0.5,0.9,0.7,1.9,0.6,2.9c0,0.1-0.1,0.2-0.2,0.2s-0.1,0-0.2-0.3c-0.1-0.8-0.4-1.5-0.8-2.2c0,0.1,0,0.3,0,0.4
	C21.1,17.8,21.3,18.7,21.4,19.7"/>
<path class="st0" d="M20.9,16L20.9,16c0,0.1,0,0.2,0,0.3c0.3,0.5,0.6,1.2,0.7,1.8l0,0l0,0C21.5,17.3,21.3,16.6,20.9,16L20.9,16z"/>
<path class="st0" d="M17.6,5.9L17.9,6c0.2,0.1,0.3,0.2,0.5,0.3c0.7,0.4,1.2,1.1,1.2,1.9v0.1c0.2,1.2,0.4,1.9-0.8,2.8
	c-0.1,0.1-0.1,0.2,0,0.3c0,0.1,0.1,0.1,0.1,0.1l0,0c0.4-0.2,0.7-0.5,0.9-0.9c0.7-0.9-0.1-3-0.3-3.7c-0.2-0.5-0.5-0.8-1-1l-1.3-0.6
	c-0.1-0.1-0.2-0.2-0.2-0.4c0-0.1,0.1-0.2,0.3-0.3c0.2-0.1,0.4-0.1,0.6-0.1h0.5c2.1,0.1,4.1,0.8,5.8,1.9l0,0c0.1,0.1,0.1,0.2,0,0.2
	c0,0.1-0.2,0.1-0.4,0.2c-0.1,0-0.3-0.1-0.4-0.1l-0.2-0.3c0,0,0-0.1-0.1-0.1s0,0-0.1,0.1l-0.1,0.4c0,0.1,0,0.1,0.1,0.1
	c0.3,0.1,0.5,0.1,0.8,0.1c0.5,0,0.9-0.2,1.3-0.5c0.1-0.1,0.1-0.1,0.1-0.2s-0.1-0.1-0.2-0.1h-0.1c-0.4,0-0.8-0.1-1.2-0.4
	c-1.9-1.1-4-1.7-6.2-1.6c-0.2,0-0.4,0-0.5,0.1c-0.2,0.1-0.3,0.3-0.4,0.4c0,0.2,0,0.4,0.2,0.5C17.2,5.7,17.4,5.8,17.6,5.9"/>
<path class="st0" d="M8,10.2c0.1,0.3,0.2,0.4,0.4,0.5h0.8c0.1,0,0.1-0.1,0.1-0.2c0-0.1,0-0.1-0.1-0.1H8.6c-0.2,0-0.4-0.4-0.5-0.7
	C8,9,8.2,8.4,8.7,7.9l0-0.1H8.7c0,0-0.1-0.1-0.1-0.1c0-0.1,0-0.1,0.1-0.2l0.1-0.1l0,0H8.7l0,0C8.3,7.7,8,8.1,7.7,8.4
	C7.6,8.6,7.6,8.8,7.7,9L8,10.2z"/>
<path class="st0" d="M9.7,9.6L9.7,9.6c-0.1,0-0.3,0.1-0.4,0.1c-0.2,0-0.4-0.1-0.5-0.2h0l0,0c0,0,0,0.1,0,0.1C8.8,9.8,9,9.9,9.2,9.9
	C9.4,9.9,9.6,9.8,9.7,9.6C9.7,9.7,9.8,9.6,9.7,9.6"/>
<path class="st0" d="M8.5,8.8c0,0.1,0,0.2,0,0.3c0,0.1,0.1,0.1,0.2,0.1h0.1C9.2,9.1,9.7,8.9,10,8.6V8.5l0,0C9.7,8.7,9.3,8.9,8.9,8.9
	c-0.1,0-0.1-0.1-0.1-0.1c0,0,0-0.2,0.1-0.3C9,8.4,9.2,8.2,9.3,8.1c0,0,0-0.1,0-0.1c0,0,0-0.1,0-0.1c0,0,0-0.1,0-0.1
	c0-0.1,0-0.2,0.1-0.2c0.1-0.1,0.1-0.1,0.2-0.2c0.1,0,0.1-0.1,0.1-0.2C9.6,7,9.5,7,9.4,7C9.2,7.1,9.1,7.2,9.1,7.4
	C9.2,7.6,9.1,7.8,9,8C8.8,8.2,8.6,8.5,8.5,8.8"/>
<path class="st0" d="M9.5,7.7c0,0,0,0.1,0,0.1c0.1,0.1,0.2,0.3,0.1,0.5l0,0C9.7,8.2,9.7,8.1,9.8,8c0-0.1,0-0.3-0.1-0.3
	C9.6,7.7,9.6,7.6,9.5,7.7C9.5,7.6,9.5,7.6,9.5,7.7"/>
<path class="st0" d="M15.9,28.2c0.3,0.3,0.6,0.8,0.7,1.2c0.2,0.6,0.5,1.3,0.9,1.4c0.1,0,0.1,0,0.2,0l0,0c0,0,0,0-0.1,0
	c-0.3-0.1-0.5-0.6-0.6-1.2s-0.5-1.4-1-1.5h-0.2c0,0-0.1,0-0.1,0C15.8,28.1,15.8,28.1,15.9,28.2"/>
<path class="st0" d="M16.8,28.1c0,0-0.1,0-0.1,0H16.8c0.3,0.2,0.5,0.8,0.7,1.3s0.5,1.4,1,1.4l0,0h0.1l0,0c-0.3-0.1-0.5-0.6-0.7-1.2
	C17.7,29,17.4,28.2,16.8,28.1"/>
<path class="st0" d="M18.4,29.6L18.4,29.6c0.2,0.5,0.5,1.2,1,1.2h0.1c-0.3-0.3-0.5-0.7-0.6-1.1c-0.1-0.4-0.2-0.8-0.7-0.9H18v0
	C18.2,29,18.3,29.2,18.4,29.6"/>
<path class="st0" d="M16.8,27.7H17c0.1,0,0.2-0.1,0.2-0.2c0-0.1,0-0.1-0.1-0.1h-0.4c-0.2,0-0.5,0-0.7-0.1h-0.1c0,0-0.1,0-0.1,0
	c0,0-0.1,0-0.1,0c0,0.1,0,0.1,0,0.2c0.1,0.2,0.4,0.2,0.9,0.2h0.3"/>
<path class="st0" d="M21.5,27.7c-0.1-0.2-0.3-0.4-0.6-0.4c-0.3,0-0.6,0.2-0.7,0.6c0,0,0,0,0,0c0,0,0,0.1,0,0.1c0,0,0.1,0,0.1,0
	c0.1,0,0.1,0,0.1-0.1c0-0.3,0.2-0.3,0.3-0.3c0.1,0,0.2,0.1,0.3,0.2c0,0.1,0,0.2-0.1,0.3c-0.2,0.1-0.2,0.3-0.2,0.5c0,0,0,0,0,0
	c0.2,0.3,0.2,0.8,0,1.1c-0.1,0.2,0,0.4,0.2,0.5c0,0,0,0,0.1,0l0,0c0,0.1,0,0.2,0,0.2c-0.1,0.1-0.2,0.2-0.3,0.2
	c-0.1,0-0.3-0.1-0.3-0.2c0-0.1-0.1-0.1-0.1-0.1c-0.1,0-0.1,0-0.1,0.1c0,0,0,0.1,0,0.1c0.2,0.4,0.4,0.5,0.7,0.5c0.1,0,0.3,0,0.4-0.1
	c0.1-0.1,0.2-0.2,0.2-0.4c0-0.1,0-0.3-0.1-0.4c-0.1-0.1-0.2-0.3-0.1-0.5c0.2-0.3,0.2-0.6,0-0.9c-0.1-0.2-0.1-0.4,0.1-0.5
	C21.5,28.1,21.6,27.9,21.5,27.7"/>
<path class="st0" d="M15.5,30.2c0-0.1-0.1-0.1-0.2-0.1h-0.1l-0.1,0.3c-0.1,0.1-0.2,0.1-0.3,0.1c0,0-0.1,0-0.1-0.1c0-0.1,0-0.2,0-0.2
	c0-0.1,0.1-0.2,0.2-0.3c0.1-0.1,0.1-0.3,0-0.4c-0.1-0.3-0.2-0.6-0.1-0.9l0.1-0.4c0-0.1,0-0.3-0.1-0.3c-0.1-0.1-0.2-0.2-0.1-0.3
	c0-0.1,0.1-0.2,0.2-0.2c0,0,0.1,0,0.1,0c0.1,0,0.2,0.1,0.2,0.2v0.1c0,0.1,0.1,0.1,0.2,0.1c0,0,0.1,0,0.1,0c0-0.1,0-0.1,0-0.2
	c-0.1-0.3-0.4-0.5-0.7-0.5c-0.1,0-0.3,0.1-0.4,0.2c-0.1,0.1-0.1,0.2-0.1,0.4c0,0.1,0,0.3,0.1,0.4l0,0c0.1,0.2,0.1,0.4,0,0.6
	c-0.1,0.3-0.1,0.5,0,0.8c0.1,0.2,0.1,0.4,0,0.7l0,0.1c-0.1,0.1-0.1,0.2-0.1,0.4c0.1,0.3,0.3,0.4,0.5,0.4c0.1,0,0.3,0,0.4-0.1
	C15.4,30.6,15.5,30.4,15.5,30.2"/>
<path class="st0" d="M20.1,31c-0.1,0-0.1,0-0.2,0.1c-0.1,0.1-0.2,0.1-0.4,0.1h-0.1c-1.2,0-2.4,0-3.6-0.1c-0.1,0-0.2,0-0.4-0.1
	c-0.1,0-0.2-0.1-0.2,0c-0.1,0-0.1,0-0.1,0c0,0.1,0,0.1,0,0.2c0.2,0.3,2.2,0.3,3,0.3h1.4c0.2,0,0.5-0.1,0.7-0.2
	c0.1,0,0.1-0.1,0.1-0.2C20.3,31,20.2,31,20.1,31"/>
<path class="st0" d="M15.9,6.4C17,6.7,17.8,7,18,8c0,0.3,0.1,0.5,0.2,0.7l0,0V8.6c0.1-0.8-0.2-1.5-0.9-1.9c-0.4-0.3-0.9-0.4-1.4-0.6
	c-0.3,0-0.4-0.3-0.4-0.5c0-0.3,0.2-0.6,0.6-0.6h0.1c0.1,0,0.1,0,0.1-0.1s0,0-0.1,0h-0.1c-0.4,0-0.8,0.1-0.8,0.7
	C15.3,6.1,15.4,6.4,15.9,6.4"/>
<path class="st0" d="M16,5.4L16,5.4c0.2,0,0.3,0.1,0.3,0.2S16.3,5.7,16,5.8l0,0h0.1h0.2c0.1,0,0.3,0,0.4-0.1c0,0,0-0.1,0-0.1
	c-0.1-0.1-0.2-0.2-0.4-0.2c-0.1,0-0.1,0-0.2,0"/>
<path class="st0" d="M17.6,6.5c0.1,0,0.1,0,0.2,0c0,0,0.1,0,0.1,0l0,0c-0.3-0.3-0.8-0.5-1.2-0.3C16.6,6.3,17.5,6.2,17.6,6.5"/>
<path class="st0" d="M17.8,8.3C17.6,8,17.4,7.7,17,7.5c-0.1,0-0.1,0-0.1,0.1c0.5,0.4,0.9,1,1,1.6c0,0.1,0,0.3-0.1,0.4l0,0l-0.1,0.1
	c0,0,0,0.1,0,0.1c0,0.1,0.1,0.1,0.2,0.1l0,0l0.5-0.4c0,0,0.1-0.1,0.1-0.2c0,0,0,0,0,0C18.2,9.1,18,8.8,17.8,8.3"/>
<path class="st0" d="M16.3,8.7L16.3,8.7C16.2,8.8,16.2,8.8,16.3,8.7c0.1,0.6,0.1,1.1,0.1,1.6c0,0,0,0.1,0,0.1c0.1,0,0.1,0.1,0.2,0.1
	c0.2-0.1,0.4-0.1,0.6-0.2c0.1-0.1,0.2-0.2,0.2-0.4c-0.1-0.6-0.3-1.2-0.7-1.7c0,0,0,0-0.1,0l0,0c0,0,0,0.1,0,0.1
	c0.5,0.9,0.6,1.4,0.4,1.7c-0.1,0.1-0.2,0.1-0.3,0.2c-0.1,0-0.2,0-0.2-0.2C16.5,9.5,16.4,9.2,16.3,8.7L16.3,8.7z"/>
<path class="st0" d="M16.9,9.6c0,0,0-0.1,0-0.1c-0.1-0.4-0.2-0.8-0.5-1.2l0,0l0,0c0.2,0.4,0.3,0.9,0.4,1.3
	C16.8,9.7,16.9,9.8,16.9,9.6"/>
<path class="st0" d="M17.6,9.3c0.1,0.1,0.1,0,0.1-0.1c-0.2-0.5-0.7-1.3-0.8-1.3C17.2,8.4,17.4,8.8,17.6,9.3"/>
<path class="st0" d="M15.2,10.3l0.1-0.6c0,0,0-0.1,0-0.1c0,0,0,0-0.1,0.1s-0.3,0.9-0.2,1.1c0,0,0.1,0.1,0.1,0.1h0.2
	c0.2,0,0.4-0.1,0.5-0.2c0.3-0.3,0.2-0.9,0.2-1.4V9.1C16.1,9,16,9,16,9h-0.1c0,0,0,0.1,0,0.1c0,0.4-0.1,0.8-0.2,1.2
	c-0.1,0.1-0.2,0.2-0.3,0.2C15.3,10.6,15.2,10.5,15.2,10.3"/>
<path class="st0" d="M15.6,10.1c0-0.2,0-0.5,0-0.7l0,0c0,0-0.1,0-0.1,0.1c0,0.2,0,0.4-0.1,0.7c0,0,0,0.1,0,0.1l0,0
	C15.5,10.2,15.6,10.2,15.6,10.1"/>
<path class="st0" d="M15.3,8.2C15.3,8.2,15.3,8.2,15.3,8.2L15.3,8.2c0.1,0,0.1-0.1,0-0.1c-0.2-0.1-0.6-0.3-0.8-0.3l0,0
	c0,0,0,0,0,0.1C14.8,7.9,15,8,15.3,8.2"/>
<path class="st0" d="M13.8,10.9C13.9,11,14,11,14.1,11c0.2,0,0.5-0.1,0.5-0.4l0.2-0.8c0,0,0-0.1,0-0.1h-0.1c-0.1,0-0.2,0.1-0.2,0.2
	c0,0.2-0.1,0.5-0.2,0.7c0,0-0.1,0.1-0.1,0.1c0,0-0.1,0-0.1-0.1c0,0,0-0.1,0-0.1c0.1-0.1,0.1-0.2,0.2-0.4c0,0,0-0.1,0-0.1l0,0l-0.1,0
	c-0.1,0.2-0.2,0.4-0.4,0.5C13.8,10.8,13.8,10.9,13.8,10.9"/>
<path class="st0" d="M11.8,10.1c-0.1,0-0.1,0-0.2,0c-0.1,0-0.1,0-0.1,0s0,0.1,0,0.1c0.7,0.4,1,1.3,0.6,2c0,0,0,0.1,0,0.1l0,0
	c0,0,0.1,0,0.1-0.1C12.7,11.6,12.5,10.7,11.8,10.1C11.8,10.2,11.7,10.2,11.8,10.1"/>
<path class="st0" d="M5,13.6c0,0.1,0,0.1,0.1,0.1h0.1c0.1,0,0.1,0,0.1-0.1c0,0,0-0.1,0-0.2c-0.2-0.3,0-0.4,0.1-0.5l0,0
	c0,0,0.1-0.1,0.1-0.1c0,0,0-0.1,0-0.1c0-0.1-0.1-0.1-0.1-0.1c-0.1,0-0.1,0-0.1,0C5.1,12.7,5,12.8,5,12.8l0,0l0,0H4.9
	c0,0-0.1,0.1,0,0.2C5,13.2,5,13.3,5,13.6"/>
<path class="st0" d="M5.6,13.8c0,0.1,0.1,0.1,0.2,0.1c0,0,0,0,0.1,0c0-0.1,0-0.2,0-0.2c-0.1-0.4,0-0.5,0.2-0.6l0,0c0,0,0-0.1,0-0.2
	c0,0-0.1,0-0.1,0H5.8C5.4,13.1,5.3,13.3,5.6,13.8"/>
<path class="st0" d="M6,13.5L6.1,14c0,0.1,0.1,0.1,0.2,0.1c0,0,0.1,0,0.1,0c0-0.1,0-0.1,0-0.2c-0.1-0.2-0.1-0.4,0.1-0.6l0.2-0.2
	c0-0.1,0-0.1,0-0.2c0,0-0.1-0.1-0.2-0.1H6.4l-0.2,0.2C6.1,13.2,6,13.4,6,13.5"/>
<path class="st0" d="M11.1,10.4c0,0-0.1,0-0.1,0c-0.1,0-0.1,0-0.1,0.1c0,0.1,0,0.2,0.1,0.3c0.3,0.2,0.5,0.4,0.6,0.8
	c0.1,0.3,0,0.6-0.2,0.8l-1.5,1.4c-1,1-1.1,1.8-0.4,2.6h0.1c0,0,0-0.1,0-0.1c-0.5-1.1,0.2-1.7,1.1-2.5l0,0c0.5-0.4,0.9-0.8,1.3-1.3
	C12.2,11.8,12,11.1,11.1,10.4"/>
<path class="st0" d="M11.7,16.1c-0.2,0-0.5,0-0.7,0H11c-0.1,0-0.3,0-0.4,0c-0.4,0-0.7-0.1-0.9-0.9c0-0.1,0-0.1-0.1-0.2
	c-0.1,0-0.1,0.1-0.1,0.2c0,1,0.7,1,1.6,1c0.3,0,0.6,0,0.9,0c0.4,0.1,0.8,0.4,0.9,0.9c0.1,0.4-0.1,0.8-0.4,1.1
	c-0.1,0.1-0.1,0.1-0.1,0.2c0,0.1,0.1,0.1,0.2,0.1c0,0,0.1,0,0.1,0c0.4-0.3,0.6-0.9,0.5-1.4c-0.1-0.6-0.7-1-1.3-1.1L11.7,16.1"/>
<path class="st0" d="M10,12.5c-1.2,0.6-1.9,1.8-1.7,3.2c0.1,0.9,0.9,1.7,1.9,1.7h1.7c0.1,0,0.2,0,0.3,0.1c0,0.1,0,0.3-0.1,0.4
	c0,0.1,0,0.1,0,0.1l0,0c0.1,0,0.1,0,0.1-0.1c0.2-0.1,0.3-0.4,0.2-0.6c-0.1-0.2-0.3-0.3-0.5-0.3h-0.8c-0.5,0.1-0.9,0-1.4-0.2
	c-0.6-0.3-1.1-0.9-1.1-1.6c0-1.1,0.6-2,1.6-2.5c0.5-0.3,1-0.7,1.1-1c0-0.1,0-0.1,0-0.2l0,0c0,0-0.1,0-0.1,0
	c-0.3,0.4-0.7,0.7-1.2,0.9"/>
<path class="st0" d="M7.2,15.8c-0.1,0.3,0,0.6,0.2,0.9c0.3,0.2,0.6,0.4,0.9,0.6c0.3,0.2,0.5,0.6,0.5,1l0,0c0,0.1,0,0.2,0.1,0.3
	c0.1,0.3,0.3,0.6,0.7,0.6l0,0c0.1,0,0.1,0,0.1-0.1c0,0,0-0.1-0.1-0.1C9.2,18.8,9,18.7,9,18.5c-0.1-0.5-0.2-0.9-0.5-1.3
	c-0.3-0.2-0.6-0.4-0.9-0.6c-0.1-0.1-0.1-0.1-0.1-0.2c0-0.5,0.1-1,0.4-1.4C8,14.2,7.6,13.6,7,13.3H6.9c-0.1,0-0.1,0-0.1,0
	c0,0.1,0,0.1,0.1,0.1C7.5,13.9,7.9,14.4,7.2,15.8"/>
<path class="st0" d="M7.4,17.6C7.8,17.8,8,18.2,8,18.7c0.1,1.1,0.6,1.6,1.6,1.6l0,0c0.2,0,0.3,0,0.4-0.1l0,0c0-0.1,0-0.2-0.1-0.2
	c-0.1-0.1-0.1-0.1-0.2-0.1c0,0-0.1,0-0.1,0l0,0c-0.1,0-0.2,0.1-0.3,0.1c-0.1,0-0.1,0-0.2,0c-0.5-0.1-0.9-0.6-0.9-1.1
	c0.1-0.5-0.1-1-0.5-1.2c-0.4-0.2-0.7-0.5-1-0.9c-0.2-0.4-0.2-0.9,0.1-1.3L7,15.2C7,15,7.1,14.8,7.1,14.6c0-0.5-0.1-0.8-0.4-0.9h0
	c0,0-0.1,0-0.1,0s0,0.1,0.1,0.2c0.4,0.3,0.4,0.8,0,1.6c-0.2,0.4-0.3,0.8-0.1,1.2C6.7,17.1,7,17.4,7.4,17.6"/>
<path class="st0" d="M10.6,20.2L10.6,20.2C10.7,20.2,10.7,20.2,10.6,20.2c0-0.1-0.1-0.1-0.2-0.1l0,0C10.5,20.1,10.5,20.2,10.6,20.2"
	/>
<path class="st0" d="M11.2,20C11.2,20,11.2,20,11.2,20c-0.1-0.2-0.2-0.2-0.4-0.2l0,0l0,0c0,0,0,0,0,0.1C11,20,11.1,20.1,11.2,20
	L11.2,20L11.2,20z"/>
<path class="st0" d="M11.3,19.6L11.3,19.6L11.3,19.6c0,0.1,0.1,0.2,0.3,0.2h0.1l0,0c0,0,0,0,0-0.1C11.6,19.7,11.4,19.6,11.3,19.6"/>
<path class="st0" d="M11.5,18.7c0.1,0,0.1,0,0.2-0.1l0.2-0.1c0,0,0-0.1,0-0.1c0,0,0,0,0,0c-0.1-0.1-0.2-0.3-0.1-0.5c0,0,0-0.1,0-0.1
	h-0.1c-0.1,0-0.1,0.1-0.1,0.1l0,0c-0.2,0.1-0.3,0.4-0.3,0.6C11.3,18.6,11.4,18.7,11.5,18.7L11.5,18.7z"/>
<path class="st0" d="M10.3,19.8L10.3,19.8L10.3,19.8c-0.1-0.1-0.2-0.3-0.1-0.5c0-0.2-0.1-0.5-0.2-0.6c0,0,0,0-0.1,0.1
	c0,0.1,0,0.2,0,0.2c0.1,0.1,0.1,0.2,0.1,0.4C10,19.6,10,19.8,10.3,19.8"/>
<path class="st0" d="M10.7,19.7L10.7,19.7c0.2,0,0.2-0.1,0.2-0.1s0,0-0.1,0c-0.2-0.1-0.3-0.4-0.2-0.6c0.1-0.1,0-0.3-0.1-0.4
	c-0.1-0.1-0.1-0.3-0.1-0.4l0,0h-0.1c-0.1,0-0.1,0.1-0.1,0.2c0,0.2,0,0.3,0.1,0.5c0.1,0.1,0.1,0.2,0.1,0.4c0,0.2,0,0.3,0.1,0.5
	C10.6,19.6,10.6,19.7,10.7,19.7"/>
<path class="st0" d="M11.3,17.8L11.3,17.8L11.3,17.8l-0.2-0.1c-0.2,0-0.4,0.1-0.5,0.2c-0.1,0.1-0.1,0.3,0,0.4c0.1,0.1,0.1,0.3,0,0.4
	c-0.1,0.2,0,0.5,0.2,0.6c0,0,0.1,0,0.1,0h0.1l0,0c-0.1-0.1-0.1-0.2,0-0.3c0,0,0,0,0,0c0,0,0.1,0,0.1-0.1c0,0,0-0.1-0.1-0.1
	c-0.3-0.3-0.2-0.7,0-1c0,0,0,0,0,0"/>
<path class="st0" d="M13,19.7c0.1-0.1,0.3-0.2,0.4-0.3c0.2-0.1,0.3-0.2,0.5-0.4c0.2-0.3,0.1-0.8-0.2-1c0,0-0.1,0-0.1,0
	c0,0-0.1,0-0.1,0.1c0,0.1,0,0.1,0,0.2l0.2,0.3c0.1,0.2,0,0.4-0.1,0.5c0,0,0,0,0,0c-0.3,0.1-0.5,0.3-0.8,0.5c0,0.1-0.1,0.1-0.2,0.1
	c-0.1,0-0.1,0-0.2-0.1L12,19.3c0-0.1,0-0.1,0-0.2c0,0,0.1-0.1,0.1-0.1h0.1l0.2,0.1h0.1c0,0,0,0,0-0.1c0-0.2-0.1-0.3-0.3-0.4h-0.1
	c-0.2,0-0.4,0.2-0.6,0.4c-0.1,0.2,0.2,0.4,0.5,0.7c0.1,0.1,0.2,0.1,0.3,0.2c0.1,0,0.1,0.1,0.2,0c0,0,0.1,0,0.1,0
	C12.8,19.9,12.9,19.8,13,19.7"/>
<path class="st0" d="M13.8,20L13.8,20c0.3,0.1,0.6,0.1,0.8,0.3c0,0,0.1,0,0.1,0c0,0,0,0,0,0c0,0,0-0.1-0.1-0.1
	c-0.3-0.2-0.7-0.3-1.1-0.4c-0.1,0-0.2,0-0.3,0C13.1,19.9,13,20,13,20.1c0,0.1,0,0.1,0.1,0.1l0.7,0.2l0.5,0.2h0c0,0,0.1,0,0.1,0v-0.1
	c-0.2-0.1-0.4-0.2-0.6-0.3c-0.1,0-0.1-0.1-0.1-0.1S13.7,20.1,13.8,20"/>
<path class="st0" d="M14.2,19.1c-0.1,0.1-0.2,0.1-0.2,0.2c0,0.1,0,0.2,0,0.3c0.1,0.2,0.6,0.4,0.9,0.4l0,0c0.1,0,0.1,0,0.1-0.1v-0.1
	l0,0c-0.2-0.1-0.5-0.2-0.6-0.4c0-0.1-0.1-0.2,0-0.2s0.1-0.1,0.2-0.1c0.1,0,0.2,0,0.3,0.1l0,0h0c0,0,0-0.1,0-0.1
	c-0.1-0.1-0.2-0.1-0.2-0.1C14.5,19,14.3,19,14.2,19.1"/>
<path class="st0" d="M14.6,19.3L14.6,19.3C14.6,19.3,14.5,19.3,14.6,19.3c-0.1,0.1-0.1,0.1-0.1,0.2c0.2,0.1,0.4,0.2,0.6,0.3l0,0
	c0,0,0,0,0.1-0.1c0,0,0-0.1,0-0.1C15.1,19.5,14.9,19.4,14.6,19.3"/>
<path class="st0" d="M14.8,21.2L14.8,21.2c0.1,0,0.2,0,0.3,0c0.3-0.1,0.7-0.2,1-0.2c0.1,0,0.1,0,0.1-0.1s0-0.1-0.1-0.1h-0.2
	c-0.3,0-0.6,0.1-0.9,0.2h-0.1c0,0-0.1,0-0.1,0c0-0.1,0-0.1,0.1-0.2c0.3-0.3,0.6-0.5,1-0.6c0.1,0,0.1-0.1,0.1-0.1c0,0,0,0,0,0
	c0-0.1-0.1-0.1-0.1-0.1c-0.5,0.1-0.9,0.4-1.2,0.8c-0.1,0.1-0.1,0.2-0.1,0.4C14.6,21.2,14.7,21.2,14.8,21.2"/>
<path class="st0" d="M15.4,20.4C15.4,20.4,15.4,20.5,15.4,20.4c0,0.1,0.1,0.1,0.2,0.1c0.2,0,0.3,0,0.4-0.1v-0.1l0,0c0,0-0.1,0-0.2,0
	C15.7,20.4,15.5,20.4,15.4,20.4"/>
<path class="st0" d="M14.4,18.4c0,0,0-0.1,0-0.2c0-0.1,0.1-0.1,0.1-0.1l0,0l0,0c-0.1-0.2-0.3-0.3-0.5-0.3c0,0-0.1,0-0.1,0
	c0,0.4,0.2,0.6,0.6,0.8h0.1l0,0L14.4,18.4z"/>
<path class="st0" d="M13.9,16.6L13.9,16.6c0,0.3,0.1,0.7,0.3,0.9c0.1,0.1,0.2,0.2,0.4,0.2c0,0,0.1,0,0.1,0c0-0.1,0-0.1,0-0.2
	c0-0.1-0.1-0.2-0.2-0.2c0,0,0,0.1-0.1,0.1c-0.1,0-0.2-0.2-0.2-0.4C14.1,16.9,14,16.7,13.9,16.6"/>
<path class="st0" d="M15,18c0-0.1-0.1-0.1-0.2-0.1l0,0v0c0,0.7,0.3,1.3,0.8,1.7c0,0,0.1,0,0.1,0c0.1,0,0.2-0.2,0.2-0.2
	c0-0.2,0-0.4-0.1-0.6c0,0-0.1-0.1-0.1-0.1h-0.1V19c0,0,0,0.1,0,0.1h0l0,0c0,0-0.1,0-0.1,0c-0.3-0.3-0.4-0.7-0.4-1.1
	c0-0.1,0-0.1-0.1-0.2"/>
<path class="st0" d="M16.7,21.2c0.1,0,0.1,0,0.2,0c0.1,0,0.1,0,0.2-0.1c0.1-0.2,0.1-0.5,0.1-0.7l0,0c0-0.1-0.1-0.1-0.1-0.2l0,0
	c0,0,0,0.1,0,0.1v0.4c0,0.1,0,0.2-0.1,0.2c0,0-0.1,0-0.1-0.1c-0.2-0.4-0.3-0.9-0.3-1.4c0-0.2-0.1-0.3-0.2-0.3s0,0,0,0.1
	C16.2,20,16.3,20.6,16.7,21.2L16.7,21.2z"/>
<path class="st0" d="M16.7,20.4L16.7,20.4c0-0.1,0-0.1,0-0.2l0-0.4c0,0-0.1-0.1-0.1-0.1c0,0-0.1,0-0.1,0.1c0,0.2,0,0.3,0.1,0.5
	L16.7,20.4"/>
<path class="st0" d="M15.5,18.9c0,0,0-0.1,0-0.1c0-0.1,0-0.2-0.1-0.2c0,0-0.1,0-0.1,0v0c0,0.1,0,0.2,0,0.3
	C15.4,18.8,15.4,18.8,15.5,18.9"/>
<path class="st0" d="M18.1,6.8L18.1,6.8H18C18,6.8,18,6.9,18.1,6.8c0.3,0,0.6,0.2,0.7,0.4c0,0.1,0,0.1,0,0.2c0,0-0.1,0.1-0.2,0.1
	l0,0v0.1c0.1,0,0.1,0,0.2,0.1c0.1,0,0.1,0,0.2-0.1c0-0.1,0-0.2,0-0.3C18.8,6.9,18.5,6.7,18.1,6.8"/>
<path class="st0" d="M18.5,7.3C18.5,7.3,18.5,7.3,18.5,7.3c0-0.1,0-0.2-0.2-0.2l0,0c0,0,0,0,0.1,0.1C18.4,7.3,18.4,7.3,18.5,7.3"/>
<path class="st0" d="M18.7,8C18.6,7.9,18.6,8,18.7,8C18.6,8,18.6,8,18.7,8c-0.1,0.1-0.1,0.2,0,0.2c0.3,0,0.5,0.2,0.5,0.6
	c0,0.2-0.1,0.2-0.2,0.2c-0.1,0-0.1,0-0.2,0c0,0-0.1,0-0.1,0c0,0,0,0,0,0.1c0.1,0.1,0.3,0.2,0.5,0.2c0,0,0.1,0,0.1,0
	c0.1-0.1,0.2-0.3,0.1-0.6C19.3,8.3,19,8,18.7,8C18.7,8,18.7,8,18.7,8"/>
<path class="st0" d="M18.8,8.6C18.9,8.7,18.9,8.7,18.8,8.6c0.1-0.1,0.1-0.2,0-0.2c0,0-0.1,0-0.1,0c-0.1,0-0.1,0-0.1,0.1s0,0.1,0,0.1
	C18.7,8.7,18.7,8.7,18.8,8.6"/>
<path class="st0" d="M18.9,10.8L18.9,10.8c0.3-0.2,0.5-0.5,0.6-0.8c0-0.1,0-0.3-0.1-0.4c-0.1-0.1-0.3-0.2-0.5-0.2h-0.1
	c-0.1,0-0.2,0-0.2,0.1c0,0,0,0.1,0,0.1L19,9.6c0.1,0,0.1,0.1,0.2,0.1c0,0.1,0,0.3-0.1,0.4c-0.2,0.3-0.3,0.3-0.3,0.5
	S18.8,10.8,18.9,10.8"/>
<path class="st0" d="M18.8,10.1h0.1c0.1,0,0.1,0,0.1-0.1s-0.1-0.2-0.1-0.2h-0.1c0,0-0.1,0.1-0.1,0.1C18.7,9.9,18.7,10,18.8,10.1"/>
<path class="st0" d="M19.6,6.2L19.6,6.2c0.1,0.1,0.4,0.2,0.6,0.2c0,0,0.1,0,0.1,0c0,0,0-0.1,0-0.1c-0.5-0.8-1.3-1.2-2.2-1.2h-0.4
	h-0.1c0,0,0.1,0.1,0.3,0.2l0.4,0c0.5-0.1,1,0.1,1.4,0.5c0.1,0.1,0.1,0.2,0.1,0.2S19.8,6.2,19.6,6.2"/>
<path class="st0" d="M19.1,5.7h-0.2l0,0c0,0,0,0,0.1,0.1c0.1,0,0.2,0,0.3,0c0.1,0,0.1,0,0.2,0h0c0,0,0,0-0.1-0.1
	C19.3,5.7,19.2,5.7,19.1,5.7"/>
<path class="st0" d="M21.1,5.9c-0.1,0-0.2,0-0.2-0.1c-0.2-0.2-0.4-0.4-0.7-0.5H20l0,0c0.4,0.5,0.9,0.8,1.4,1h0.1c0,0,0.1,0,0.1,0
	c0,0,0,0,0-0.1c0-0.3-0.2-0.6-0.5-0.6c0,0.1,0.1,0.2,0,0.3C21.2,5.9,21.1,6,21.1,5.9"/>
<path class="st0" d="M22,27.1c0,0,0.1,0,0.1,0l0,0c-0.1,0-0.1-0.1-0.1-0.2c0-0.1,0-0.2,0.2-0.4c0.8-0.4,1-0.8,0.9-1.4c0,0,0,0,0-0.1
	c0,0-0.1-0.1-0.2-0.1c-0.1,0-0.2,0.1-0.2,0.1c0,0.3-0.2,0.6-0.4,0.9c-0.7,0.4-1.4,0.6-2.2,0.7c-0.3,0-0.6,0.1-0.7,0.4l-0.3,0.7
	c0,0.2-0.2,0.3-0.3,0.3L18.1,28C18,28,18,28,17.9,28c0-0.1,0-0.1,0-0.2c0-0.6,0.1-1.1,0.2-1.7c0.1-0.2,0-0.4-0.1-0.5
	c0,0,0-0.1-0.1-0.1c0,0,0,0-0.1,0.1c-0.3,0.7-0.4,1.5-0.4,2.3c0,0.2,0,0.3,0.2,0.4l1.4,0.1c0.2,0,0.3-0.1,0.3-0.2
	c0.1-0.7,0.3-1.1,0.7-1.1l1.1-0.2h0.1c0.1,0,0.2,0,0.3,0.1C21.8,27.1,21.9,27.2,22,27.1"/>
<path class="st0" d="M21.3,24.7L21.3,24.7c-0.3,0-0.3,0.2-0.3,0.3c0,0.1,0.1,0.2,0.2,0.2c0,0,0.1,0,0.1,0c0.1-0.1,0.3-0.2,0.5-0.3
	C21.6,24.7,21.4,24.7,21.3,24.7"/>
<path class="st0" d="M21,26h0.1c0.2,0,0.3-0.1,0.4-0.2c-0.2,0-0.4,0-0.6-0.1h0c-0.1,0-0.1,0.1-0.1,0.2l0,0c0,0.1,0,0.1,0.1,0.2
	C20.8,26,20.9,26.1,21,26"/>
<path class="st0" d="M20.4,25c0.1-0.2,0.2-0.3,0.3-0.4h-0.1c-0.1,0-0.3,0-0.4,0.1c-0.1,0.1-0.2,0.2-0.2,0.3c0,0.1,0.1,0.2,0.2,0.2
	C20.3,25.1,20.4,25,20.4,25"/>
<path class="st0" d="M18.7,27.2c0.1,0,0.1,0,0.1-0.1c0-0.2,0.1-0.4,0.2-0.5c-0.2,0-0.3,0.1-0.4,0.2c-0.1,0.1-0.1,0.2-0.1,0.3
	C18.5,27.2,18.6,27.2,18.7,27.2"/>
<path class="st0" d="M24.7,26.7c0.2-0.1,0.4-0.2,0.7-0.2c-0.2-0.2-0.4-0.3-0.6-0.3C24.2,26.2,24.3,26.8,24.7,26.7"/>
<path class="st0" d="M25.5,25.8c0-0.2,0.1-0.4,0.1-0.5c-0.2,0-0.3,0.1-0.4,0.2c-0.1,0.1-0.1,0.2-0.1,0.3c0,0.1,0.1,0.1,0.2,0.1
	C25.4,25.9,25.5,25.9,25.5,25.8"/>
<path class="st0" d="M26.5,25.5h-0.1c-0.1,0-0.3,0-0.4,0.1c-0.1,0.1-0.2,0.2-0.1,0.3c0,0.1,0.1,0.2,0.2,0.2c0.1,0,0.1,0,0.1-0.1
	C26.2,25.8,26.3,25.6,26.5,25.5"/>
<path class="st0" d="M25.9,26.7H26c0.2,0,0.3-0.1,0.4-0.2c-0.2,0-0.4,0-0.6-0.1h-0.1c-0.1,0-0.2,0.1-0.2,0.1c0,0,0,0,0,0
	c0,0.1,0,0.1,0.1,0.2C25.7,26.7,25.8,26.7,25.9,26.7"/>
<path class="st0" d="M19.6,25.9c0,0.1,0.1,0.1,0.2,0.2c0.1,0,0.2-0.1,0.2-0.2c0.1-0.1,0.1-0.3,0.1-0.5c-0.1,0.1-0.3,0.2-0.5,0.3
	C19.6,25.8,19.6,25.8,19.6,25.9"/>
<path class="st0" d="M17,24.6c-0.2,0-0.4,0.2-0.6,0.3c0.2,0,0.5,0.1,0.6,0.2C17.5,25.2,17.6,24.6,17,24.6"/>
<path class="st0" d="M15.7,24.1c0.1,0,0.1-0.1,0.2-0.1c0-0.1,0-0.2-0.2-0.3c-0.1,0-0.2-0.1-0.4-0.1h-0.1c0.2,0.1,0.3,0.3,0.4,0.4
	C15.6,24.1,15.6,24.1,15.7,24.1"/>
<path class="st0" d="M14.9,24.1c0-0.1-0.1-0.2-0.3-0.3c-0.2,0-0.3,0-0.4,0.1c0.2,0,0.3,0.1,0.5,0.2c0,0,0.1,0,0.1,0
	C14.8,24.2,14.9,24.1,14.9,24.1C14.9,24.1,14.9,24.1,14.9,24.1"/>
<path class="st0" d="M15.1,24.8c-0.2,0.1-0.4,0.2-0.6,0.2c0.2,0.2,0.4,0.3,0.6,0.3C15.6,25.3,15.4,24.6,15.1,24.8"/>
<path class="st0" d="M15.8,24.8c0.1,0,0.1,0,0.2,0c0.1,0,0.2-0.1,0.2-0.2c0,0,0,0,0,0c0-0.1-0.1-0.2-0.1-0.2c0,0,0,0,0,0h-0.2
	c-0.1,0-0.2,0-0.3,0C15.5,24.6,15.7,24.7,15.8,24.8"/>
<path class="st0" d="M12.1,24c0.1,0,0.1,0.1,0.2,0.1c0.1,0,0.2-0.1,0.2-0.2c0,0,0-0.2-0.2-0.2c-0.2,0-0.3,0-0.5-0.1
	C11.9,23.7,12,23.9,12.1,24"/>
<path class="st0" d="M10.8,24.1c0.1,0,0.1,0,0.2,0c0.1,0,0.2-0.1,0.2-0.2c0-0.1-0.1-0.2-0.2-0.2c0,0,0,0,0,0h-0.1
	c-0.1,0-0.3,0-0.4-0.1C10.5,23.8,10.7,24,10.8,24.1"/>
<path class="st0" d="M10.2,22.9L10.2,22.9c-0.2,0-0.4,0-0.5,0.1c0.1,0.1,0.2,0.1,0.3,0.2l0,0c0,0,0.1,0.1,0.1,0.1h0.1
	c0.1,0,0.2-0.1,0.2-0.2C10.4,23,10.4,22.9,10.2,22.9"/>
<path class="st0" d="M7.8,21.4L7.8,21.4c0,0.1,0.1,0.2,0.2,0.2c0,0,0.1,0,0.1-0.1c0-0.1,0-0.2,0-0.3C8.1,21.1,8,21,7.8,20.9
	c0,0.1,0,0.2,0,0.4C7.8,21.3,7.8,21.4,7.8,21.4"/>
<path class="st0" d="M7.4,20.9c-0.1-0.1-0.2-0.3-0.3-0.4c0,0.1,0,0.2,0,0.4c0,0,0,0.1,0,0.1l0,0c0,0.1,0.1,0.2,0.2,0.2
	c0,0,0.1,0,0.1-0.1C7.4,21.2,7.4,21,7.4,20.9"/>
<path class="st0" d="M7.3,21.6L7.3,21.6c-0.2,0-0.4-0.1-0.5-0.2c0,0.2,0.1,0.4,0.3,0.5c0,0,0.1,0,0.2,0c0.1,0,0.2-0.1,0.2-0.2
	C7.4,21.7,7.4,21.6,7.3,21.6"/>
<path class="st0" d="M8,22.5c0.1,0,0.1,0.1,0.2,0.1c0.1,0,0.2-0.1,0.2-0.1c0-0.1,0-0.2-0.1-0.2H8.2c-0.2,0-0.3-0.1-0.4-0.2
	C7.8,22.2,7.9,22.4,8,22.5"/>
<path class="st0" d="M17.9,23.9c0,0,0-0.1,0-0.1c0-0.2,0-0.3,0-0.5c0,0,0-0.1-0.2-0.1h-0.1c-0.3,0-0.6,0.2-0.6,0.5
	c-0.1,0.3,0,0.6,0.3,0.8h0.1l0,0c0-0.1,0-0.1,0-0.2c0-0.1,0-0.2,0-0.2c0.1-0.1,0.2-0.1,0.4-0.1L17.9,23.9z"/>
<path class="st0" d="M18.7,25.7L18.7,25.7c0,0,0.1,0,0.1,0l0,0c-0.1-0.1-0.2-0.2-0.2-0.3s0.1-0.2,0.2-0.3s0.1-0.2,0-0.2
	c-0.1-0.1-0.2-0.2-0.3-0.4c0,0-0.1-0.1-0.1-0.1c-0.1,0-0.1,0-0.2,0.1c-0.3,0.2-0.4,0.7-0.1,1C18.2,25.7,18.4,25.8,18.7,25.7"/>
<path class="st0" d="M23.5,25.6L23.5,25.6c0.1,0,0.1,0,0.2,0c0.3,0,0.5-0.2,0.5-0.5c0.1-0.3,0-0.7-0.3-0.9c0,0-0.1-0.1-0.1,0
	c0,0-0.1,0-0.1,0.1c-0.1,0.1-0.2,0.3-0.3,0.4c0,0,0,0.1,0,0.1c0,0.1,0.1,0.1,0.1,0.1c0.1,0.1,0.2,0.2,0.2,0.3
	C23.7,25.3,23.6,25.4,23.5,25.6"/>
<path class="st0" d="M22.3,24.7c0.1,0.1,0.2,0.1,0.3,0.1c0.1,0,0.1,0,0.2-0.1c0.3-0.1,0.6-0.3,0.7-0.6c0-0.1,0-0.3-0.1-0.4
	c-0.1-0.1-0.3-0.2-0.5-0.2h-0.1c-0.3,0-0.6-0.1-0.7-0.4c-0.1-0.1-0.2-0.2-0.3-0.2h-0.1l0,0v0c0,0.2,0.2,0.3,0.3,0.5
	c0.2,0.1,0.4,0.2,0.6,0.3c0.1,0.1,0.2,0.1,0.2,0.2s-0.1,0.2-0.2,0.2h-0.1c-0.1,0-0.2-0.1-0.3-0.2c-0.2-0.3-0.4-0.6-0.7-0.8h-0.1
	c0,0-0.1,0-0.1,0c-0.1,0-0.2,0.1-0.2,0.2c0,0.1-0.1,0.1-0.1,0.1c-0.1,0-0.1,0-0.1,0h-0.1c-0.4,0.2-0.7,0.5-1,0.8
	c0,0-0.1,0.1-0.2,0.1l0,0h-0.1l0,0l0,0c0-0.1,0-0.2,0.1-0.2c0.3-0.2,0.6-0.4,0.8-0.7c0,0,0-0.1,0-0.1c0,0,0-0.1-0.1-0.1
	c-0.1,0-0.2-0.1-0.3-0.1c-0.1,0-0.2,0-0.4,0.1c-0.1,0-0.2,0-0.3,0c-0.2,0-0.4,0-0.6-0.1c0,0-0.1,0-0.1,0c-0.1,0-0.2,0.1-0.3,0.1
	c0,0.1,0,0.1-0.1,0.2c0,0.2,0,0.3,0,0.5c0,0.1,0,0.1,0.1,0.2c0,0,0.1,0.1,0.1,0.1c0.1,0,0.1,0,0.2-0.1c0.2-0.1,0.3-0.3,0.3-0.5
	c0-0.1,0.1-0.1,0.2-0.2c0.2-0.1,0.4-0.1,0.6-0.1h0.2c0.1,0,0.1,0,0.1,0.1s0,0.1-0.1,0.2c-0.3,0.2-0.5,0.3-0.8,0.4
	c-0.2,0.1-0.3,0.3-0.2,0.5c0,0.1,0.1,0.3,0.4,0.5c0.1,0,0.1,0.1,0.2,0.1c0.2,0,0.3-0.1,0.4-0.3c0-0.1,0.1-0.2,0.2-0.2
	c0.2-0.1,0.4-0.3,0.6-0.5c0,0,0.1,0,0.1,0c0.1,0,0.1,0.1,0.1,0.2v0.1c0.1,0.1,0.1,0.1,0.2,0.1s0.1-0.1,0.2-0.2c0,0,0.1-0.1,0.1-0.1
	h0c0,0,0,0.1,0,0.2s0,0.1,0,0.1c0,0,0.1,0,0.1,0c0.1,0,0.1,0,0.2,0.1L22.3,24.7z"/>
<path class="st0" d="M18.6,21.5c0,0-0.1,0-0.1,0c0,0,0,0.1,0,0.1l0.7,0.9c0.1,0.1,0.2,0.2,0.3,0.2c0.1,0,0.1,0,0.1-0.1
	c0-0.1,0-0.2,0-0.3c0-0.1,0-0.1-0.1-0.1v0c0,0-0.1,0.1-0.1,0.1c-0.1,0-0.1,0-0.1-0.1l-0.6-0.8C18.7,21.5,18.7,21.5,18.6,21.5"/>
<path class="st0" d="M20.6,23c0,0,0.1,0,0.1,0c0.1,0,0.1,0,0.2-0.2c0-0.3,0-0.5-0.1-0.8l-0.5-1.2c0-0.1,0-0.1-0.1-0.1s0,0-0.1,0.1
	c0,0.2,0,0.4,0.1,0.6c0.1,0.1,0.2,0.3,0.2,0.4l0.1,0.2c0.1,0.1,0.1,0.3,0,0.4c0,0-0.1,0.1-0.2,0.1c-0.1,0-0.1,0-0.2-0.1l-0.5-0.8
	c-0.1-0.2-0.3-0.4-0.5-0.5h-0.1l0,0v0.1c0.1,0.2,0.3,0.4,0.4,0.6l0,0C19.8,22.4,20.2,22.8,20.6,23"/>
<path class="st0" d="M19.9,21.4L19.9,21.4l0.4,0.8l0,0c0,0,0.1,0,0.1,0c0,0,0-0.1,0-0.1L19.9,21.4L19.9,21.4L19.9,21.4z"/>
<path class="st0" d="M19.4,22.2L19.4,22.2C19.4,22.2,19.4,22.2,19.4,22.2c0.1-0.1,0.1-0.1,0.1-0.2l-0.3-0.5l0,0l0,0v0.1L19.4,22.2z"
	/>
<path class="st0" d="M21.5,22.5c0.1,0,0.1,0,0.2,0c0,0,0,0,0.1,0c0,0,0-0.1,0-0.1c0-0.5-0.1-0.9-0.3-1.4c-0.1-0.1-0.1-0.3-0.1-0.4
	c0,0,0-0.1,0-0.1h-0.1c-0.1,0.2-0.1,0.3,0,0.5l0.3,0.7c0,0.1,0,0.2,0,0.2l0,0l0,0c-0.1,0-0.1,0-0.1-0.1c-0.1-0.2-0.2-0.4-0.2-0.6
	c-0.1-0.3-0.1-0.3-0.2-0.3h-0.1l0,0c0.1,0.6,0.3,1.1,0.8,1.5"/>
<path class="st0" d="M20.5,17.3c0,0-0.1,0-0.1,0.1c0,0.1,0,0.1,0,0.2c0.4,0.7,0.5,1.4,0.5,2.2c0,0.2-0.1,0.3-0.2,0.3
	c-0.1,0-0.2-0.1-0.2-0.1c-0.2-0.3-0.3-0.7-0.5-1l0,0c-0.1-0.3-0.2-0.6-0.4-0.8l0,0c0,0,0,0-0.1,0.1c0,0.2,0,0.3,0.1,0.5
	c0.1,0.2,0.2,0.5,0.3,0.7l0,0c0.2,0.4,0.4,0.8,0.7,1.2c0.1,0,0.1,0.1,0.2,0.1c0.1,0,0.1-0.1,0.2-0.2C21.2,19.4,21,18.3,20.5,17.3
	C20.5,17.3,20.5,17.3,20.5,17.3"/>
<path class="st0" d="M20.5,19.4c0,0,0.1,0,0.1-0.1c0-0.6-0.2-1.2-0.7-1.6c0,0-0.1,0-0.1,0c0,0,0,0-0.1,0c0,0,0,0.1,0,0.1
	C20.1,18.3,20.3,18.8,20.5,19.4C20.5,19.3,20.5,19.4,20.5,19.4"/>
<path class="st0" d="M19.5,21c0.1,0,0.1,0,0.2,0c0.1,0,0.2,0,0.3-0.3c0-0.8-0.3-1.7-0.7-2.4c0,0-0.1,0-0.1,0c-0.1,0-0.1,0-0.1,0.1
	c0,0,0,0.1,0,0.1c0.1,0.3,0.2,0.5,0.3,0.8v0c0.1,0.3,0.3,0.6,0.4,0.9c0,0.1,0,0.2,0,0.3c0,0-0.1,0.1-0.1,0.1c-0.1,0-0.1,0-0.2-0.1
	c-0.3-0.3-0.6-0.7-0.8-1.1v-0.1c-0.1-0.2-0.2-0.4-0.4-0.6c-0.1-0.1-0.1-0.1-0.1-0.1H18c0,0.1,0,0.2,0,0.2
	C18.4,19.7,18.9,20.4,19.5,21"/>
<path class="st0" d="M18.2,18.3L18.2,18.3L18.2,18.3c0.4,0.6,0.7,1.1,1,1.7h0l0,0c0,0,0-0.1,0-0.1C19,19.3,18.7,18.7,18.2,18.3
	L18.2,18.3z"/>
<path class="st0" d="M18.5,21.2c0.2,0,0.2-0.1,0.2-0.4c-0.2-0.7-0.5-1.4-1.1-1.9c0,0-0.1,0-0.1,0l0,0l0,0c0.4,0.4,0.7,0.9,1,1.4
	c0.1,0.1,0.1,0.2,0,0.3c0,0.1-0.1,0.1-0.2,0.1c-0.1,0-0.2,0-0.2-0.1c-0.5-0.7-1-1.3-1.6-1.9c0,0-0.1,0-0.1,0h-0.1c0,0,0,0.1,0,0.1
	c0.6,0.7,1.2,1.3,1.7,2.1c0.1,0.1,0.2,0.2,0.3,0.2"/>
<path class="st0" d="M16.8,18.6L16.8,18.6c0,0.1,0,0.1,0,0.2l1.3,1.6h0.1l0,0c0,0,0-0.1,0-0.1L16.8,18.6L16.8,18.6z"/>
<path class="st0" d="M22,6.4c0.2,0.2,0.5,0.3,0.8,0.4c0,0,0.1,0,0.1,0C22.9,6.7,23,6.6,23,6.5c0-0.1-0.2-0.2-0.3-0.3l0,0
	c0,0.1,0,0.1,0,0.2c0,0-0.1,0.1-0.2,0.1c-0.1,0-0.2-0.1-0.2-0.2c0-0.2-0.1-0.3-0.3-0.4l0,0C22,6,22,6.1,22,6.2C22,6.3,22,6.4,22,6.4
	"/>
<path class="st0" d="M20.4,7.3h-0.2l0,0v0.1c0.1,0.1,0.3,0.2,0.5,0.2c0.1,0,0.2,0,0.2-0.1c0.1-0.1,0-0.3-0.1-0.6l0,0l0,0l0,0
	c0,0,0-0.1-0.2-0.3l0,0c0,0.1-0.1,0.1-0.2,0.1h-0.2h-0.3l0,0c0,0.1,0.1,0.1,0.1,0.1c0.5,0,0.6,0.2,0.6,0.3S20.6,7.4,20.4,7.3"/>
<path class="st0" d="M20.5,8.1C20.9,8.3,21,8.5,21,8.7c0,0.1-0.1,0.2-0.2,0.2c-0.1,0-0.2-0.1-0.3-0.1c0,0.1,0,0.1,0,0.2
	c0.1,0.3,0.4,0.4,0.7,0.5c0.1,0,0.1,0,0.2-0.1c0.1-0.1,0.1-0.3,0-0.4c-0.2-0.3-0.2-0.7-0.2-1c0,0,0-0.1,0-0.1L21,7.9
	c-0.1,0-0.1,0.1-0.2,0.1c-0.1,0-0.3,0-0.4-0.1l0,0.1c0,0,0,0,0,0.1L20.5,8.1z"/>
<path class="st0" d="M19.3,13.8c0,0.1,0,0.1,0,0.2c0.2,0.3,0.5,0.7,0.7,1.1v0c0.2,0.3,0.3,0.5,0.4,0.7c0,0,0.1,0.1,0.1,0.1
	c0,0,0.1-0.1,0.1-0.2c-0.1-0.9-0.5-1.8-1.1-2.6l0,0c0,0.1,0,0.1,0,0.2c0.3,0.4,0.6,0.9,0.7,1.4c0,0.1,0,0.1,0,0.2l0,0l0,0
	c0,0-0.1,0-0.1-0.1c-0.2-0.4-0.4-0.8-0.7-1.1l0,0L19.3,13.8z"/>
<path class="st0" d="M18.6,15.1C18.6,15.1,18.6,15.1,18.6,15.1c-0.1,0.1-0.1,0.2-0.1,0.2c0.3,0.6,0.6,1.2,0.9,1.8
	c0.1,0.2,0.2,0.2,0.4,0.3c0.2,0,0.3-0.1,0.4-0.2c0.2-0.3,0.2-0.7,0-1c-0.3-0.7-0.7-1.3-1.1-1.9c0,0-0.1,0-0.1,0c0,0,0,0-0.1,0
	c0,0.1,0,0.1,0,0.2c0.4,0.6,0.7,1.2,1,1.9c0.1,0.2,0.1,0.4,0,0.5c0,0.1-0.1,0.1-0.2,0.1c-0.1,0-0.2-0.1-0.2-0.1
	c-0.3-0.5-0.6-1.1-0.9-1.6C18.6,15.2,18.6,15.2,18.6,15.1"/>
<path class="st0" d="M19.6,16.3c0,0,0.1,0,0.1-0.1c0-0.1,0-0.1,0-0.2L19,14.7c0,0,0-0.1,0-0.1l0,0c0,0.1,0,0.2,0,0.3L19.6,16.3
	L19.6,16.3"/>
<path class="st0" d="M18.8,18.2c0.2,0,0.4-0.1,0.5-0.3c0.1-0.2,0.1-0.5,0-0.8c-0.3-0.5-0.6-1.1-0.8-1.7c0-0.1-0.1-0.1-0.1-0.1
	c-0.1,0-0.1,0-0.1,0.1c0,0,0,0.1,0,0.1c0.2,0.6,0.5,1.2,0.8,1.7c0.1,0.1,0.1,0.3,0,0.4c0,0.1-0.1,0.1-0.2,0.1
	c-0.1,0-0.2-0.1-0.2-0.2c-0.3-0.3-0.5-0.6-0.7-1l-0.1-0.1c-0.1-0.2-0.3-0.4-0.4-0.6c0,0-0.1-0.1-0.1-0.1c-0.1,0-0.1,0-0.1,0.1
	c0,0,0,0.1,0,0.1l1.1,1.7C18.3,18.1,18.5,18.2,18.8,18.2"/>
<path class="st0" d="M17.6,15.8l0.9,1.5c0,0.1,0.1,0.1,0.1,0.1l0,0c0,0,0-0.1,0-0.2l-0.9-1.6c0,0,0,0-0.1,0l0,0v0.1
	C17.7,15.6,17.7,15.7,17.6,15.8C17.6,15.8,17.6,15.8,17.6,15.8"/>
<path class="st0" d="M17.8,18.6c0.1-0.2,0.1-0.3,0-0.5c-0.2-0.6-0.6-1.2-1-1.8l-0.1-0.1c0-0.1-0.1-0.1-0.2-0.1c0,0-0.1,0-0.1,0
	c0,0,0,0,0,0.1c0.4,0.5,0.7,1.1,1,1.7c0,0.1,0,0.2,0,0.3c0,0.1-0.1,0.1-0.2,0.1c-0.1,0-0.1,0-0.2-0.1c-0.5-0.6-1-1.2-1.5-1.8
	c0,0-0.1,0-0.1,0c0,0-0.1,0-0.1,0.1c0,0,0,0.1,0,0.1c0.4,0.7,1,1.4,1.5,2c0.1,0.1,0.3,0.2,0.4,0.2c0.1,0,0.2,0,0.3-0.1"/>
<path class="st0" d="M15.9,16.1c0.3,0.6,0.7,1.2,1.2,1.6c0,0,0,0,0.1,0l0,0c0,0,0-0.1,0-0.1c-0.4-0.6-0.8-1.2-1.2-1.6h-0.1
	C15.9,16.1,15.9,16.1,15.9,16.1"/>
<path class="st0" d="M16.3,18.6c0,0,0.1,0,0.1,0c0,0,0-0.1,0-0.2c-0.4-0.7-0.8-1.3-1.4-1.9c0,0-0.1-0.1-0.1-0.1l0,0c0,0,0,0,0,0.1
	c0.3,0.4,0.6,0.8,0.9,1.2c0,0.1,0,0.1,0,0.2l0,0l0,0l0,0c-0.1,0-0.1,0-0.1-0.1c-0.5-0.6-1-1.2-1.4-1.8c0,0-0.1-0.1-0.1-0.1
	c-0.1,0-0.1,0-0.1,0.1c0,0,0,0.1,0,0.1l0.1,0.1C14.7,17.2,15.4,18.3,16.3,18.6L16.3,18.6z"/>
<path class="st0" d="M18.2,11.9c0,0.1-0.1,0.1-0.1,0.2c0,0.2,0,0.2,0,0.3l0,0h0.1c0.3-0.2,0.4-0.5,0.4-0.8l-0.1-1.4
	c0-0.1-0.1-0.1-0.1-0.1h-0.1c0,0.1,0,0.1,0,0.2v0.3c0,0.2,0,0.3,0,0.5s0,0.3,0,0.4C18.3,11.5,18.3,11.7,18.2,11.9L18.2,11.9z"/>
<path class="st0" d="M17.2,10.6C17.1,10.7,17.1,10.7,17.2,10.6c-0.3,0.6-0.4,1.2-0.3,1.8c0,0.2,0.2,0.3,0.4,0.3
	c0.3,0,0.6-0.3,0.7-0.6c0.1-0.6,0.2-1.2,0.1-1.8c0-0.1,0-0.2-0.1-0.2h-0.1c0,0-0.1,0.1,0,0.1c0.1,0.6,0,1.1-0.1,1.7
	c-0.1,0.2-0.3,0.4-0.4,0.4s-0.2,0-0.2-0.3C17.1,11.6,17.1,11.2,17.2,10.6C17.2,10.7,17.2,10.6,17.2,10.6"/>
<path class="st0" d="M17.5,11.9c0.1-0.5,0.1-1,0.1-1.5c0-0.1,0-0.1,0-0.1c0,0-0.1,0.1-0.1,0.1L17.5,11.9C17.4,12,17.4,12,17.5,11.9
	C17.5,12,17.5,12,17.5,11.9"/>
<path class="st0" d="M15.6,12.7c-0.1,0-0.1,0-0.2-0.1c0-0.1,0-0.2,0-0.4l0.3-1.1c0,0,0-0.1,0-0.1h-0.1c0,0-0.1,0-0.1,0.1
	c-0.1,0.2-0.2,0.5-0.3,0.8s-0.1,0.4-0.2,0.6c0,0.1,0,0.2,0,0.3c0.1,0.2,0.3,0.2,0.5,0.2l0,0c0.5-0.1,0.8-0.3,0.9-0.6l0.2-1.4
	c0,0,0-0.1,0-0.1h-0.1c0,0-0.1,0-0.1,0.2l-0.2,1.1C16.2,12.6,16,12.8,15.6,12.7"/>
<path class="st0" d="M16.1,10.9c-0.1,0-0.1,0.1-0.1,0.1c0,0.4-0.1,0.8-0.2,1.2c0,0,0,0.1,0,0.1h0c0,0,0.1,0,0.1-0.1
	C16.1,11.7,16.2,11.4,16.1,10.9C16.2,10.9,16.2,10.9,16.1,10.9"/>
<path class="st0" d="M14.1,12.8c0.1,0,0.2,0.1,0.3,0.1c0.2,0,0.4-0.1,0.5-0.3l0.4-1.1c0-0.1,0-0.1,0-0.1s0,0,0,0
	c-0.1,0.4-0.3,0.8-0.5,1.1c-0.1,0.1-0.2,0.2-0.3,0.2c-0.1,0-0.2,0-0.2-0.1c-0.1-0.1-0.1-0.2,0-0.3c0.2-0.3,0.3-0.7,0.4-1
	c0,0,0-0.1,0-0.1c0,0-0.1,0-0.1,0.1c-0.2,0.4-0.3,0.7-0.6,1.1c-0.1,0.1-0.1,0.2-0.1,0.4C14,12.6,14.1,12.7,14.1,12.8"/>
<path class="st0" d="M14.8,11.2c-0.1,0.3-0.2,0.6-0.4,0.9c0,0.1,0,0.1,0,0.1c0,0,0,0,0,0l0,0c0,0,0.1,0,0.1-0.1
	c0.2-0.3,0.3-0.6,0.4-0.9C15,11.3,14.9,11.2,14.8,11.2C14.9,11.2,14.9,11.2,14.8,11.2"/>
<path class="st0" d="M14.2,11.2C14.2,11.2,14.2,11.2,14.2,11.2c-0.1,0.3-0.3,0.6-0.4,0.8c0,0,0,0.1,0,0.1h0.1
	c0.2-0.2,0.4-0.5,0.5-0.8c0,0,0,0,0-0.1"/>
<path class="st0" d="M13.1,12.3c0.1,0.1,0.2,0.2,0.4,0.2c0.1,0,0.1,0,0.1-0.1v-0.1l-0.2-0.1c0,0-0.1-0.1-0.1-0.1
	c0-0.1,0-0.1,0.1-0.2c0.2-0.2,0.3-0.3,0.4-0.5c0-0.1,0-0.1,0-0.2l0,0c0,0,0,0-0.1,0.1c-0.2,0.3-0.4,0.5-0.6,0.7
	C13.1,12.2,13.1,12.3,13.1,12.3"/>
<path class="st0" d="M13,12.8c-0.3,0.4-0.5,0.9-0.4,1.4c0.1,0.2,0.1,0.4,0.2,0.7c0.1,0.1,0.1,0.3,0.2,0.4c0.1,0.2,0.1,0.4,0.1,0.6
	c0,0,0,0.1,0.2,0.1c0.1,0,0.2,0,0.2,0c0.1,0,0.3-0.1,0.4-0.3c0-0.1,0-0.2,0-0.3c-0.5-1.1-0.5-1.8-0.1-2.3c0,0,0-0.1,0-0.1
	c0,0-0.1-0.1-0.1-0.1c-0.1,0-0.1,0-0.1,0.1c-0.2,0.2-0.4,0.6-0.3,0.9c0,0.2,0.1,0.5,0.1,0.7c0,0.2,0.1,0.4,0.1,0.6
	c0,0.1,0,0.1,0,0.2c0,0-0.1,0.1-0.1,0.1c0,0-0.1,0-0.2-0.2c-0.1-0.2-0.1-0.4-0.2-0.5l0,0C13.1,14.5,13,14.2,13,14
	c0-0.4,0.1-0.8,0.3-1.1l0,0c0-0.1,0-0.1,0-0.1c0,0-0.1-0.1-0.1-0.1C13.1,12.7,13.1,12.7,13,12.8"/>
<path class="st0" d="M14,14.8c0.1,0.5,0.3,0.9,0.6,1.3c0.1,0.1,0.3,0.2,0.4,0.2c0.3,0,0.5-0.2,0.6-0.4c0-0.1,0-0.3-0.1-0.4
	c0,0-0.1-0.1-0.1-0.1c-0.2-0.6-0.2-1.2,0-1.8c0,0,0-0.1,0-0.1c0,0-0.1,0-0.1,0c-0.1,0-0.1,0-0.2,0.1c-0.2,0.6-0.2,1.4,0,2
	c0,0.1,0,0.2,0,0.3c-0.1,0.1-0.1,0.1-0.2,0.1c-0.1,0-0.2,0-0.3-0.1c-0.5-0.7-0.7-1.6-0.3-2.4c0-0.1,0-0.1,0-0.2c0,0-0.1-0.1-0.1,0
	c-0.1,0-0.1,0-0.1,0.1c-0.3,0.5-0.3,1.1-0.2,1.6"/>
<path class="st0" d="M14.9,13.1C14.9,13.1,14.9,13.1,14.9,13.1c-0.1,0-0.2,0-0.2,0.1c-0.3,0.7-0.2,1.4,0.1,2.1c0,0,0,0,0.1,0l0,0
	c0-0.1,0-0.1,0-0.2c-0.3-0.6-0.3-1.3,0-1.9C14.9,13.3,14.9,13.2,14.9,13.1"/>
<path class="st0" d="M16,13.3L16,13.3c-0.1,0-0.2,0-0.2,0.1c-0.2,0.6-0.2,1.3,0,1.9c0.1,0.3,0.4,0.6,0.7,0.6c0.3,0,0.6-0.3,0.6-0.6
	c-0.1-0.7-0.2-1.4-0.1-2c0,0,0-0.1,0-0.1c0,0-0.1,0-0.1,0c-0.1,0-0.1,0-0.1,0.1c-0.1,0.5-0.1,1.1-0.1,1.6c0,0,0,0.1,0,0.1
	c0.1,0.1,0.1,0.3,0,0.4c-0.1,0.1-0.1,0.1-0.2,0.1c-0.1,0-0.3-0.1-0.3-0.2C16,14.7,16,14,16.1,13.4C16.1,13.4,16.1,13.4,16,13.3"/>
<path class="st0" d="M16.5,13.1L16.5,13.1c0,0-0.1,0-0.1,0.1c-0.1,0.5-0.1,1.1-0.1,1.6c0,0.1,0.1,0.1,0.1,0.1c0,0,0.1,0,0.1-0.1
	C16.5,14.3,16.5,13.8,16.5,13.1L16.5,13.1z"/>
<path class="st0" d="M18,12.6c0,0.1,0,0.2,0,0.3c0.2,0.5,0.3,1,0.2,1.5c0,0.2-0.1,0.3-0.3,0.3c-0.1,0-0.2-0.1-0.3-0.2
	c-0.1-0.4-0.2-0.9-0.1-1.4c0-0.1-0.1-0.1-0.1-0.1c0,0-0.1,0-0.1,0c0,0,0,0.1,0,0.1c-0.1,0.6,0,1.3,0.3,1.9c0.1,0.1,0.2,0.2,0.3,0.2
	c0.2,0,0.5-0.2,0.6-0.6c0.1-0.7,0-1.3-0.4-1.9H18L18,12.6z"/>
<path class="st0" d="M17.9,14.2c0,0,0-0.1,0-0.1c-0.1-0.4-0.1-0.8-0.2-1.1c0-0.1,0-0.1-0.1-0.1s0,0,0,0.1
	C17.7,13.3,17.8,13.8,17.9,14.2L17.9,14.2z"/>
<path class="st0" d="M18.9,12C18.9,12,18.9,12,18.9,12c0,0.2,0,0.4,0.1,0.5l0,0c0.1,0.1,0.1,0.3,0.1,0.5c0,0.1-0.1,0.1-0.1,0.1h-0.1
	c-0.1,0-0.2-0.3-0.2-0.4s0.1-0.1,0.1-0.1s0.1,0.1,0.1,0.1s-0.1-0.3-0.1-0.3c0,0-0.1,0-0.1,0c-0.1,0-0.1,0-0.1,0.1
	c-0.1,0-0.1,0.1-0.1,0.2c0.1,0.4,0.2,0.7,0.5,1c0,0,0.1,0,0.1,0c0.1,0,0.1,0,0.2-0.1C19.4,13.1,19.3,12.5,18.9,12L18.9,12"/>
<path class="st0" d="M19.5,11.8L19.5,11.8c-0.1,0-0.1,0-0.1,0c0,0,0,0,0,0.1c0,0.1,0.1,0.1,0.1,0.2c0.1,0.1,0.3,0.3,0.1,0.5
	c0,0,0,0,0,0.1s0.1,0.1,0.1,0.1c0.1,0,0.1,0,0.1,0l0.3-0.3v-0.1c0,0,0,0,0,0s-0.3-0.2-0.4-0.3C19.7,11.9,19.6,11.8,19.5,11.8"/>
<path class="st0" d="M20.2,11.7c0,0-0.1,0-0.1,0l-0.3-0.2h-0.1c0,0-0.1,0-0.1,0.1c0,0,0,0.1,0,0.1c0.1,0.2,0.3,0.3,0.5,0.5
	c0,0,0.1,0.1,0.2,0.1c0,0,0.1,0,0.1,0c0.1-0.1,0.2-0.2,0.2-0.3c0.1-0.1,0.3-0.3,0.3-0.4c0,0,0-0.1,0-0.1c0,0,0,0-0.1,0
	c-0.2,0-0.5-0.2-0.6-0.3h-0.1c0,0-0.1,0-0.1,0.1c0,0,0,0.1,0,0.1l0.3,0.3c0,0.1,0,0.2,0,0.2C20.3,11.8,20.3,11.8,20.2,11.7"/>
<path class="st0" d="M20.9,10.5c-0.1,0-0.2,0-0.2-0.1c0,0,0,0,0,0s0,0-0.1,0s-0.1,0.2-0.1,0.3c0.1,0.2,0.3,0.3,0.5,0.3
	c0.1,0,0.2-0.1,0.3-0.2c0.1-0.2,0.2-0.5,0.2-0.8c0,0,0-0.1,0-0.1c0,0-0.1,0-0.1,0l0,0h-0.1c-0.2-0.1-0.4-0.2-0.6-0.4l0,0
	c0,0.1,0,0.2,0,0.2L21,10c0.1,0.1,0.1,0.3,0.1,0.4C21.1,10.5,21,10.5,20.9,10.5"/>
<path class="st0" d="M26.7,24.8c0-0.1,0-0.2,0-0.3c0-0.1-0.1-0.1-0.2-0.1s-0.4,0-0.4-0.4v-0.1H26c-0.2,0.1-0.3,0.2-0.4,0.4
	c0,0.1-0.1,0.1-0.1,0.2c-0.1,0.1-0.2,0.1-0.3,0.1c-0.1,0-0.2-0.1-0.3-0.2s0-0.1,0-0.1l-0.1,0.1c-0.1,0.1-0.1,0.2-0.1,0.4
	c0,0.2,0,0.4-0.1,0.6c-0.3,0.5-0.6,0.7-0.9,0.7h-0.2h0c-0.1,0-0.1,0.1-0.1,0.1c0,0.1,0,0.1,0,0.1c0.2,0.1,0.3,0.1,0.5,0.1
	c0.4,0,0.7-0.2,0.9-0.5c0.4-0.5,0.9-1.2,1.4-1.2c0.1,0,0.2,0,0.3,0.1l0,0c0,0.1,0.1,0.1,0.2,0.1C26.6,24.9,26.7,24.8,26.7,24.8"/>
<path class="st0" d="M28,26.4c-0.1,0-0.2,0-0.3-0.1c-0.1-0.1-0.1-0.2,0-0.4v0h-0.1c-0.3,0-0.3,0.1-0.4,0.3c0,0.1,0,0.2-0.2,0.3
	c-0.6,0.3-1.3,0.5-1.9,0.5c-0.5,0-1-0.1-1.5-0.2c-0.3-0.1-0.5-0.2-0.8-0.2s-0.3,0.1-0.3,0.1c0,0,0,0.1,0,0.1l0.6,0.2
	c0.1,0,0.3,0.1,0.3,0.3s0.2,0.4,0.4,0.4h0.1c0-0.1,0-0.2,0-0.3c0-0.1,0.1-0.1,0.1-0.1h0.1c0.3,0.1,0.7,0.1,1,0.1
	c0.2,0,0.4,0,0.6-0.1h0.1c0.1,0,0.1,0,0.1,0.1c0.2,0.1,0.3,0.2,0.5,0.2c0.1,0,0.2,0,0.2-0.1l0,0c-0.1,0-0.2-0.1-0.2-0.2
	s0-0.2,0.1-0.2c0.2-0.1,0.4-0.2,0.6-0.3c0.1-0.1,0.1-0.1,0.2-0.1l0,0c0.4,0,0.5-0.1,0.5-0.2v-0.1L28,26.4"/>
<path class="st0" d="M28.1,25c-0.2,0.2-0.4,0.3-0.7,0.3c-0.1,0-0.2,0-0.3,0c-0.1-0.1-0.1-0.1-0.1-0.2c0-0.1,0.1-0.3,0.3-0.5
	c0.1-0.1,0.2-0.1,0.4-0.2c0.1,0,0.3,0.1,0.3,0.2C28.1,24.8,28.1,24.9,28.1,25 M27.6,24.3c-0.1,0-0.3,0.1-0.4,0.1
	c-0.6,0.5-0.7,0.8-0.4,1.2c0.2,0.1,0.3,0.1,0.5,0.2c0.3,0,0.7-0.2,0.9-0.4c0.1-0.2,0.1-0.5,0-0.7C28.1,24.4,27.9,24.3,27.6,24.3"/>
<path class="st0" d="M29.4,24.8c0-0.1-0.1-0.1-0.1-0.1h-0.1c-0.1,0-0.2,0.1-0.4,0.1c-0.1,0-0.1,0-0.1,0.1c0,0.1,0,0.1,0.1,0.1
	c0.1,0,0.3,0.1,0.4,0.1l0,0c0,0,0,0,0.1,0c0,0,0,0,0-0.1C29.3,25,29.3,24.9,29.4,24.8"/>
<path class="st0" d="M29.2,24.2c-0.1-0.1-0.2-0.2-0.2-0.3c0,0-0.1-0.1-0.1-0.1s0,0-0.1,0.1c-0.1,0.1-0.2,0.2-0.3,0.3
	c0,0.1,0,0.1,0,0.2c0,0,0.1,0.1,0.2,0.1c0.2,0,0.3-0.1,0.4-0.2C29.1,24.4,29.1,24.3,29.2,24.2"/>
<path class="st0" d="M28.4,23.5c-0.1,0-0.1-0.1-0.1-0.1s0,0-0.1,0.1c0,0.1-0.1,0.2-0.1,0.2c0,0.1,0,0.1,0,0.2c0,0,0.1,0,0.1,0h0.1
	c0.1,0,0.2-0.1,0.3-0.2v0c0,0,0-0.1-0.1-0.1C28.5,23.6,28.4,23.6,28.4,23.5"/>
<path class="st0" d="M29.7,23.3c-0.1,0-0.2,0.1-0.2,0.1c0,0.2-0.1,0.3-0.3,0.4c-0.1,0,0,0.1,0,0.1s0.1,0.2,0.2,0.2h0.1
	c0.1-0.1,0.2-0.2,0.3-0.2H30c0.1,0,0.1,0,0.2-0.1c0-0.1,0-0.3-0.1-0.4C30,23.4,29.9,23.3,29.7,23.3"/>
<path class="st0" d="M15,26.2c0,0.1-0.1,0.2-0.2,0.2l0,0c0.1,0,0.1,0,0.2,0c0.1,0,0.3-0.1,0.4-0.2c0.1-0.1,0.3-0.2,0.5-0.2
	c0.1,0,0.2,0,0.4,0.1c0.1,0.1,0.2,0.1,0.2,0.2c0,0.1,0,0.1-0.1,0.2h0.1c0.2,0,0.4-0.1,0.5-0.4c0.1-0.2,0.3-0.3,0.5-0.3
	c0.1-0.1,0.1-0.2,0.2-0.4c0,0,0-0.1-0.1-0.1h-0.1c-0.4,0.2-0.9,0.3-1.3,0.3c-0.9,0-1.8-0.2-2.7-0.6c-0.2-0.1-0.4-0.4-0.3-0.6l0.3-1
	c0.1-0.3,0.4-0.5,0.8-0.5c0.9,0.1,1.7,0.5,2.4,1h0l0,0c0-0.1,0-0.2,0-0.2l-0.4-0.3c-0.1-0.1-0.2-0.2-0.2-0.3c0-0.3-0.2-0.4-0.3-0.5
	l0,0c0,0,0,0,0,0.1v0.3c0,0.1-0.1,0.1-0.1,0.1h-0.2c-0.4,0-0.7-0.2-0.9-0.5c-0.1-0.2-0.2-0.3-0.4-0.3H14l0.1,0.1
	c0.1,0.1,0.1,0.1,0.1,0.2c0,0.1-0.1,0.1-0.2,0.2c-0.1,0-0.1,0-0.2,0h-0.2c-0.1,0-0.2,0-0.2-0.1l0,0c-0.1-0.1-0.2-0.1-0.3-0.1
	c-0.1,0-0.1,0-0.2,0l0,0c0.2,0.1,0.3,0.4,0.2,0.6l-0.4,1.2c-0.1,0.3,0,0.6,0.2,0.9c0.3,0.1,0.4,0.2,0.4,0.3c0,0.1-0.1,0.2-0.2,0.2
	l0,0c0.1,0,0.2,0.1,0.2,0.1c0.1,0,0.3-0.1,0.4-0.2c0.1-0.1,0.2-0.1,0.3-0.1c0.1,0,0.1,0,0.2,0c0.5,0.1,0.7,0.2,0.7,0.4"/>
<path class="st0" d="M12.8,23.5C12.8,23.5,12.8,23.5,12.8,23.5c0.1-0.1,0.1-0.1,0.1-0.2c-0.1-0.2-0.4-0.5-0.6-0.6h-0.1
	c0,0,0,0-0.1,0c0,0,0,0.1,0,0.1C12.3,23,12.5,23.2,12.8,23.5L12.8,23.5z"/>
<path class="st0" d="M8.7,23.5c0,0.3,0,0.6-0.3,0.6l0,0c0.1,0.1,0.2,0.1,0.3,0.1c0.1,0,0.2,0,0.2-0.1c0,0,0.1-0.1,0.1-0.1
	c0,0,0.1,0,0.1,0l0.8,0.4c0.1,0,0.2,0.1,0.2,0.2s0,0.1-0.1,0.2c0.1,0,0.2,0,0.2,0c0.1,0,0.3-0.1,0.4-0.1c0,0,0.1-0.1,0.2-0.1h0.5
	c0.3,0,0.7,0,1-0.1c0.1-0.1,0.1-0.2,0.1-0.3c0,0,0,0,0,0h-0.1c-0.3,0.1-0.6,0.1-0.9,0.1c-0.8,0-1.5-0.2-2.1-0.7
	c-0.2-0.1-0.2-0.2-0.2-0.5c0.1-0.4,0.3-0.7,0.5-1c0-0.1,0.1-0.1,0.2-0.1h0.2c0.2,0,0.3-0.1,0.3-0.2l0,0h-0.1c-0.2,0-0.4-0.1-0.5-0.2
	c-0.1-0.1-0.2-0.2-0.3-0.2l0,0c0.1,0.1,0.1,0.3,0,0.4c0,0,0,0,0,0c-0.4,0.4-0.7,1-0.7,1.6"/>
<path class="st0" d="M10.9,22.8L10.9,22.8c-0.1-0.3-0.1-0.6,0-0.8c0.1-0.1,0.2-0.1,0.3-0.1c0.1,0,0.2,0,0.3,0.1
	c0.1,0.1,0.1,0.3,0.1,0.5c-0.1,0.3-0.2,0.5-0.4,0.5C11,22.9,10.9,22.9,10.9,22.8 M11.9,22.6c0.1-0.2,0-0.5-0.1-0.7
	c-0.1-0.2-0.3-0.3-0.5-0.2c-0.1,0-0.3,0.1-0.4,0.2c-0.2,0.2-0.2,0.4-0.2,0.7c0,0.3,0.1,0.6,0.3,0.8c0.1,0,0.2,0,0.2,0
	C11.5,23.2,11.7,23,11.9,22.6"/>
<path class="st0" d="M12.1,21.7c0.1,0,0.3-0.1,0.4-0.2c0-0.1,0-0.2,0-0.2c0,0,0,0,0,0l-0.2-0.1h-0.1c0,0-0.1,0-0.1,0.1
	c-0.1,0.1-0.1,0.2-0.1,0.3C11.9,21.7,12,21.7,12.1,21.7L12.1,21.7z"/>
<path class="st0" d="M11.8,20.9l-0.2-0.1h-0.1c0,0,0,0,0,0.1v0.3c0,0.1,0.1,0.1,0.1,0.1c0.1,0,0.1,0,0.1-0.1l0.1-0.2
	C11.9,21.1,11.9,21,11.8,20.9C11.9,21,11.8,21,11.8,20.9"/>
<path class="st0" d="M11.1,20.9h-0.3c0,0-0.1,0-0.1,0c0,0.1,0,0.1,0,0.2c0.1,0.1,0.2,0.3,0.3,0.3c0.1,0,0.1,0,0.1-0.1
	c0,0,0-0.1,0-0.1V21C11.2,21,11.1,20.9,11.1,20.9L11.1,20.9z"/>
<path class="st0" d="M7.6,23L7.6,23c0.3,0.1,0.5,0.1,0.7,0.1c0.1,0,0.1,0,0.2,0c0.1,0,0.1-0.1,0.1-0.1c0-0.1-0.1-0.1-0.1-0.1
	c-1-0.1-1.8-0.7-2.3-1.5C6,21.2,6,21,6.1,20.8c0.2-0.3,0.5-0.5,0.8-0.7C7,20.1,7.1,20,7.2,20c0.1,0,0.2,0,0.3,0.1
	c0.5,0.5,0.9,1.1,1.1,1.8c0,0.1,0.1,0.2,0.1,0.2c0.1,0,0.1,0,0.1-0.1l-0.1-0.4c0-0.1,0-0.2,0-0.3c0.2-0.3,0.3-0.5,0-0.8l0,0
	c-0.1,0.2-0.2,0.3-0.3,0.3s-0.2-0.1-0.2-0.2c-0.2-0.3-0.5-0.6-0.8-0.8c-0.1-0.1-0.2-0.2-0.1-0.2c-0.1-0.4-0.2-0.4-0.4-0.4l0,0
	c0.1,0.3,0,0.5-0.4,0.6c-0.5,0.2-0.9,0.5-1.1,1c0,0.1,0,0.2-0.1,0.2c-0.1,0-0.2-0.1-0.2-0.1l0,0v0c0,0.2,0.1,0.4,0.2,0.5
	c0.1,0,0.2,0.1,0.2,0.2C5.8,21.7,5.9,21.9,6,22c0.1,0.1,0.1,0.1,0.1,0.2S6,22.3,5.8,22.3l0,0c0.1,0.1,0.3,0.2,0.5,0.2h0.1
	c0.1,0,0.1,0,0.2,0.1l0.4,0.2C7,22.8,7,22.9,7,22.9S7,23.1,6.8,23.2l0,0c0.1,0.1,0.2,0.1,0.3,0.1c0.1,0,0.3,0,0.4-0.1
	C7.5,23.1,7.6,23,7.6,23"/>
<path class="st0" d="M5.7,18.6c0.1,0,0.3,0,0.4,0.3s0.1,0.5,0.1,0.6c0,0.1-0.1,0.1-0.2,0.1H5.9c-0.3-0.1-0.5-0.4-0.5-0.7
	C5.4,18.8,5.5,18.6,5.7,18.6 M5.2,18.7c-0.1,0.2-0.1,0.4,0,0.6c0.2,0.3,0.4,0.5,0.8,0.6h0.1c0.2,0,0.3-0.1,0.4-0.2
	c0.1-0.3,0.1-0.7-0.1-0.9c-0.1-0.2-0.4-0.4-0.6-0.4C5.5,18.4,5.3,18.5,5.2,18.7"/>
<path class="st0" d="M5.8,18.2C5.9,18.2,6,18.1,6,18C6,18,6.1,17.8,6.1,17.7c0-0.1,0-0.1-0.1-0.1c-0.1,0-0.1,0-0.2,0
	c0,0-0.1,0-0.1,0c0,0-0.1,0.1-0.1,0.2S5.7,18.2,5.8,18.2"/>
<path class="st0" d="M5.4,18.2c0.1-0.1,0.1-0.3,0-0.4c0,0,0-0.1,0-0.1c0,0-0.1,0-0.1,0c-0.1,0-0.3,0.1-0.3,0.2c0,0,0,0.1,0,0.1
	c0.1,0.2,0.3,0.3,0.3,0.3C5.3,18.3,5.3,18.3,5.4,18.2"/>
<path class="st0" d="M4.8,18c-0.1,0-0.2,0.2-0.3,0.3c0,0,0,0.1,0,0.1c0.1,0.1,0.2,0.2,0.4,0.2c0.1,0,0.1,0,0.1-0.1
	C5,18.4,5,18.2,4.8,18L4.8,18z"/>
<path class="st0" d="M4.7,17.2c0.1,0,0.2,0.1,0.2,0.2c0,0.1,0.1,0.1,0.1,0.1c0.1,0,0.1,0,0.1-0.1c0-0.1,0-0.1,0-0.2
	c0-0.1,0-0.2,0-0.2c0-0.1,0-0.2,0-0.3c-0.1-0.1-0.1-0.1-0.2-0.1c-0.2,0-0.3,0.1-0.4,0.2C4.6,17,4.7,17.2,4.7,17.2"/>
<path class="st0" d="M12.2,26C12.1,26,12.1,26,12,26c-0.1,0-0.2-0.1-0.3-0.2c-0.1-0.1,0-0.3,0.1-0.4c0,0,0.1-0.1,0.2-0.1
	c0.1,0,0.2,0.1,0.3,0.2C12.3,25.7,12.3,25.9,12.2,26 M12.5,26c0.1-0.2,0-0.4-0.1-0.6c-0.1-0.1-0.3-0.2-0.4-0.2
	c-0.2,0-0.4,0.1-0.5,0.3c-0.1,0.2-0.1,0.5,0.1,0.7c0.2,0.2,0.5,0.3,0.8,0.1C12.4,26.1,12.5,26,12.5,26"/>
<path class="st0" d="M9.5,27.9C9.5,28,9.4,28,9.4,28c-0.1,0-0.2-0.1-0.3-0.2c0-0.1,0-0.3,0.1-0.4c0,0,0.1-0.1,0.2-0.1
	c0.1,0,0.2,0.1,0.3,0.2C9.7,27.7,9.6,27.8,9.5,27.9 M9.3,27.2c-0.2,0-0.4,0.1-0.5,0.3c-0.1,0.2-0.1,0.5,0.1,0.7
	c0.1,0.1,0.3,0.2,0.4,0.2l0,0c0.2,0,0.4-0.1,0.5-0.3c0.1-0.2,0-0.4-0.1-0.6C9.7,27.2,9.5,27.2,9.3,27.2"/>
<path class="st0" d="M24,30.2c-0.1,0-0.1,0.1-0.2,0.1c-0.1,0-0.2-0.1-0.3-0.2c-0.1-0.1,0-0.3,0.1-0.4c0.1-0.1,0.4-0.1,0.5,0.1
	C24.1,29.9,24.1,30.1,24,30.2 M23.7,29.4c-0.2,0-0.4,0.1-0.5,0.3c-0.1,0.2-0.1,0.5,0.1,0.7c0.1,0.1,0.3,0.2,0.5,0.2
	c0.2,0,0.4-0.2,0.5-0.4c0.1-0.2,0-0.5-0.1-0.6C24.1,29.4,23.9,29.4,23.7,29.4"/>
<path class="st0" d="M13.8,27.5c-0.5-0.3-0.9-0.6-1.1-1c0-0.1-0.1-0.1-0.1-0.1c0,0,0,0-0.1,0c0,0.1,0,0.1,0,0.2
	c0.3,0.5,0.8,0.9,1.4,1.1c0,0,0.1,0,0.1,0S13.9,27.5,13.8,27.5"/>
<path class="st0" d="M13.7,29.7c-0.4-0.1-0.7-0.2-1.1-0.2c0,0-0.1,0-0.1,0.1c0,0.1,0,0.1,0.1,0.1c0.4,0.1,0.8,0.2,1.1,0.4h0.1
	c0,0,0,0,0-0.1v-0.2C13.8,29.8,13.8,29.7,13.7,29.7"/>
<path class="st0" d="M11.7,29.2c-0.3,0-0.6,0.2-0.8,0.4c0,0,0,0.1,0,0.1s0,0,0.1,0c0.1,0,0.2,0,0.2-0.1c0.2-0.1,0.3-0.2,0.5-0.2h0.1
	c0.2,0,0.2,0.1,0.2,0.2c0,0.1-0.1,0.2-0.2,0.2c0,0-0.1,0-0.1,0c0,0-0.1,0-0.1,0h-0.1c-0.1,0-0.2,0.1-0.4,0.2l0,0h-0.1h-0.1
	c0,0,0,0,0.1,0c0.2,0.1,0.4,0.1,0.6,0.1c0.2,0,0.4-0.1,0.5-0.2c0.1-0.1,0.1-0.3,0-0.4C12.1,29.1,12,29,11.8,29"/>
<path class="st0" d="M7.5,24.8c0,0-0.1,0-0.1,0.1s0.1,0.2,0.4,0.2c0.3,0,0.6,0.1,0.8,0.2c0.1,0.1,0.1,0.2,0.1,0.2
	c0,0.1-0.1,0.1-0.2,0.1c-0.1,0-0.1,0-0.2-0.1c0-0.1,0-0.1-0.2-0.2c-0.1-0.1-0.3-0.1-0.4-0.1H7.5H7.4c0,0,0,0,0,0.1
	c0.4,0.6,0.8,0.7,1,0.7c0.1,0,0.3-0.1,0.4-0.2c0.1-0.2,0.1-0.3,0-0.5C8.4,24.9,8,24.7,7.5,24.8"/>
<path class="st0" d="M25.8,28c-0.3-0.1-0.6-0.2-0.9-0.2c-0.2,0-0.4,0.1-0.6,0.2c-0.1,0.1-0.2,0.2-0.2,0.4c0,0.2,0.2,0.5,0.6,0.5
	c0.3,0,0.6-0.1,0.9-0.3c0,0,0-0.1,0-0.1c0,0-0.1,0-0.1,0h-0.2c-0.2,0-0.3-0.1-0.5-0.1c-0.1,0-0.2,0-0.2,0.1c0,0-0.1,0.1-0.1,0.1
	c-0.1,0-0.2-0.1-0.2-0.2c0,0,0-0.2,0.2-0.2c0.1,0,0.2,0,0.3,0c0.2,0,0.4,0,0.5,0.1h0.2c0.2,0,0.2,0,0.2-0.1S25.9,28.1,25.8,28"/>
<path class="st0" d="M22.8,28.6c0.4,0,0.7-0.1,1.1-0.3c0,0,0.1-0.1,0.1-0.1c0-0.1-0.1-0.1-0.2-0.1c0,0-0.1,0-0.1,0
	c-0.4,0.1-0.7,0.1-1.1,0.2c-0.2,0-0.5,0-0.7,0c-0.1,0-0.2,0.1-0.2,0.1s0.1,0.1,0.2,0.2C22.3,28.5,22.5,28.5,22.8,28.6"/>
<path class="st0" d="M22.9,29.4c0,0-0.1-0.1-0.1-0.1c0-0.1,0.1-0.1,0.2-0.1l1-0.3c0,0,0.1-0.1,0.1-0.1c0,0,0-0.1-0.2-0.1l0,0
	c-0.9,0.2-1.4,0.4-1.5,0.6s0.1,0.3,0.4,0.5c0,0,0.1,0,0.1,0c0.1,0,0.1,0,0.1-0.1s0-0.1,0-0.1L22.9,29.4z"/>
<path class="st0" d="M22.7,30l-0.9,0.2c0,0,0,0.1,0,0.2c0,0.1,0.1,0.1,0.2,0.1h0l0.8-0.2c0.1,0,0.1-0.1,0.1-0.2
	C22.9,30.1,22.9,30,22.7,30"/>
<path class="st0" d="M12.8,28.7c-0.2-0.5-1.1-0.9-2.5-1c-0.1,0-0.1,0-0.1,0.1c0,0,0,0.1,0.1,0.2c0.7,0.1,1.4,0.4,2,0.7
	c0.1,0.1,0.1,0.1,0.2,0.2c0,0.1,0,0.1-0.1,0.2c-0.1,0-0.1,0.1-0.1,0.1c0,0.1,0,0.2,0.1,0.2h0.1C12.7,29.2,12.8,29,12.8,28.7"/>
<path class="st0" d="M10.4,27.2c0-0.2-0.2-0.7-1.4-1.2H9c0,0,0,0-0.1,0c0,0,0,0.1,0,0.1l0.2,0.2l0.1,0.1c0.2,0.1,0.5,0.3,0.7,0.5
	c0,0,0.1,0.1,0.1,0.2c0,0,0,0.1-0.1,0.1c0,0.1,0,0.1,0,0.1c0.1,0.1,0.2,0.1,0.2,0.1C10.3,27.3,10.4,27.3,10.4,27.2"/>
<path class="st0" d="M10.6,26.5l0.5,0.2c0.2,0.1,0.4,0.2,0.6,0.2h0.1c0.2,0,0.3-0.1,0.3-0.2c0-0.1,0-0.2-0.1-0.2h-0.1l0,0
	c0,0.1-0.1,0.1-0.2,0.1h-0.2c-0.8-0.3-1.5-0.7-2.2-1.1H9.2c0,0-0.1,0-0.1,0v0.1C9.6,26,10.1,26.3,10.6,26.5"/>
<path class="st0" d="M2.3,15L2.3,15c0.2,0.1,0.3,0.2,0.4,0.3c0,0.1,0,0.3,0,0.5c0,0.1,0,0.2-0.1,0.3c0,0,0,0-0.1,0L1.6,16v-0.3
	c0-0.1,0.1-0.2,0.1-0.2c0.1,0,0.2,0,0.3,0l0,0v-0.1l-0.9-0.1v0.1l0,0c0.1,0,0.2,0.1,0.3,0.1c0,0,0,0.1,0,0.2V16l-0.8-0.1
	c-0.1,0-0.1,0-0.1,0s0,0,0,0l0-0.4c0-0.2,0.1-0.3,0.1-0.3S0.7,15,0.9,15l0,0v-0.1l-0.4-0.1l-0.2,1.7h0.1l0,0
	c0.1-0.1,0.1-0.1,0.1-0.2s0,0,0.1,0h0.1l1.8,0.2c0.2,0,0.2,0,0.2,0.1c0,0.1,0,0.1,0,0.2l0,0h0.1L3.1,15l-0.7-0.2L2.3,15z"/>
<path class="st0" d="M2.8,13.2c-0.1,0-0.3,0-0.4,0c-0.2,0.1-0.3,0.2-0.4,0.3l-0.3,0.2c-0.1,0.1-0.2,0.1-0.3,0.1c-0.1,0-0.2,0-0.2,0
	c-0.1,0-0.2-0.1-0.2-0.1c0-0.1,0-0.1,0-0.2c0-0.1,0.1-0.2,0.2-0.3c0.2-0.1,0.3-0.1,0.5-0.1l0,0V13l-0.9-0.1V13l0,0c0,0,0.1,0,0.1,0
	s0,0,0,0c0,0.1-0.1,0.1-0.1,0.1c-0.1,0.1-0.1,0.2-0.1,0.2c0,0.2,0,0.3,0.1,0.5C0.9,14,1,14.1,1.2,14.1c0.1,0,0.3,0,0.4,0
	c0.1,0,0.2-0.1,0.2-0.1l0.3-0.2c0.1-0.1,0.2-0.1,0.3-0.2c0.1,0,0.2,0,0.3,0c0.1,0,0.2,0.1,0.3,0.2c0,0.1,0,0.2,0,0.2
	c0,0.2-0.2,0.3-0.3,0.4c-0.1,0-0.3,0.1-0.4,0.1l0,0v0.1l0.9,0.1v-0.1l0,0H3.1l0,0c0,0,0,0,0.1-0.1c0.1-0.1,0.1-0.2,0.1-0.3
	c0.1-0.2,0-0.4-0.1-0.5c-0.1-0.2-0.3-0.3-0.5-0.3"/>
<path class="st0" d="M3.9,11.9c0,0.1-0.1,0.1-0.1,0.2c-0.1,0-0.2,0-0.2-0.1l-1.8-0.7v-0.1c0-0.1,0.1-0.2,0.2-0.3c0.1,0,0.3,0,0.4,0
	l0,0l0.1-0.1l-0.7-0.2l-0.6,1.8l0.7,0.3v-0.1l0,0c-0.1-0.1-0.2-0.2-0.3-0.3c0-0.1,0-0.2,0-0.3v-0.1l1.8,0.7c0.1,0,0.2,0.1,0.3,0.1
	c0,0,0,0.1,0,0.2l0,0l0.1,0L3.9,11.9L3.9,11.9L3.9,11.9z"/>
<path class="st0" d="M3.8,10l-0.3,0.5L2.8,9.9L3.8,10z M5,9.7c0,0-0.1,0.1-0.1,0.1c-0.1,0-0.2,0-0.3,0L2.3,9.4L2.2,9.5L3.6,11
	c0.1,0.1,0.2,0.3,0.4,0.4c0,0.1,0,0.1,0,0.2l0,0l0.1,0.1l0.3-0.6L4.3,11l0,0l-0.1,0.1c0,0-0.1,0-0.1,0L4,11l-0.3-0.3L4,10.1l0.4,0
	h0.2h0.1c0,0,0.1,0,0.1,0c0,0.1,0,0.1,0,0.2l0,0l0.1,0.1l0.4-0.8L5.1,9.6L5,9.7z"/>
<path class="st0" d="M5.6,8.4c0,0.2-0.1,0.4-0.2,0.6c0,0.1-0.1,0.1-0.1,0.1c0,0-0.1,0-0.1,0L3.7,7.9C3.6,7.8,3.6,7.8,3.6,7.8
	s0,0,0-0.1C3.7,7.5,4,7.3,4.2,7.3h0.1c0.3,0,0.5,0.1,0.8,0.3C5.4,7.8,5.6,8.1,5.6,8.4 M5.7,7.7C5.6,7.5,5.5,7.4,5.3,7.3
	C5,7,4.5,6.9,4.1,7.1C3.9,7.2,3.7,7.4,3.5,7.6L3,8.3l0.1,0.1l0,0c0.1-0.1,0.1-0.1,0.2-0.1s0.1,0,0.2,0.1l1.4,1
	C5,9.4,5.1,9.5,5.1,9.5s0,0.1-0.1,0.2l0,0l0.1,0.1l0.5-0.7c0.1-0.2,0.2-0.3,0.2-0.5c0-0.1,0-0.2,0-0.3C5.9,8,5.8,7.9,5.7,7.7"/>
<path class="st0" d="M7.1,7.1C6.9,7.2,6.7,7.3,6.6,7.2C6.3,7.1,6,7,5.8,6.7C5.6,6.5,5.4,6.3,5.3,6c-0.1-0.2,0-0.4,0.1-0.5
	c0.1-0.1,0.2-0.2,0.4-0.2h0.1c0.3,0.1,0.6,0.2,0.8,0.5C6.9,6,7.1,6.3,7.2,6.5C7.2,6.7,7.2,6.9,7.1,7.1 M7,5.5C6.7,5.2,6.4,5.1,6,5
	C5.7,5,5.5,5.1,5.3,5.3C5.1,5.5,5,5.8,5,6.1C5.1,6.4,5.2,6.8,5.5,7c0.2,0.3,0.6,0.4,0.9,0.5h0.1c0.2,0,0.5-0.1,0.7-0.3
	C7.4,7,7.5,6.7,7.5,6.5C7.4,6.1,7.2,5.8,7,5.5"/>
<path class="st0" d="M8.4,4.7c-0.2,0-0.3-0.1-0.5-0.1H7.5c-0.1,0-0.2,0-0.3,0c-0.1,0-0.2-0.1-0.2-0.1C7,4.4,7,4.3,7,4.2
	C7,4.1,7,4.1,7.1,4C7.2,4,7.3,3.9,7.4,4c0.2,0,0.3,0.1,0.5,0.2l0,0L8,4.1L7.4,3.5L7.3,3.5l0,0c0,0,0,0.1,0,0.1l0,0c0,0,0,0-0.2,0.1
	C7.1,3.7,7,3.7,6.9,3.8C6.8,3.9,6.7,4,6.7,4.2c0,0.2,0.1,0.4,0.2,0.5C7,4.8,7.1,4.9,7.2,4.9c0.1,0,0.2,0,0.3,0h0.4
	c0.1,0,0.2,0,0.4,0C8.3,5,8.4,5,8.5,5.1c0.1,0.1,0.1,0.2,0.1,0.3c0,0.1,0,0.2-0.1,0.2C8.3,5.8,8.2,5.8,8,5.7
	C7.9,5.7,7.7,5.6,7.6,5.5l0,0L7.5,5.6l0.6,0.6l0.1-0.1l0,0V6l0,0c0.1,0,0.1,0,0.2,0C8.5,6,8.6,6,8.7,5.9c0.1-0.1,0.2-0.3,0.2-0.5
	c0-0.2-0.1-0.4-0.2-0.5C8.7,4.8,8.6,4.7,8.4,4.7"/>
<path class="st0" d="M11.2,2c-0.1-0.1-0.1-0.2-0.1-0.4c0-0.1,0.1-0.1,0.1-0.2l0,0l0-0.1l-0.7,0.3l0.1,0.1l0,0c0.1,0,0.2,0,0.2,0
	C10.9,1.9,11,2,11.1,2.1L11.5,3c0.1,0.2,0.1,0.3,0.2,0.5c0,0.2-0.1,0.4-0.3,0.5C11.2,4,11,4,10.8,3.9c-0.1-0.1-0.2-0.2-0.3-0.4
	l-0.5-1.1C10,2.3,10,2.2,10,2.2s0-0.1,0.2-0.1l0,0l-0.1-0.1L9.2,2.3v0.1l0,0c0.1,0,0.1,0,0.2,0c0,0,0.1,0.1,0.1,0.2l0.5,1.1
	c0.1,0.2,0.2,0.3,0.3,0.5c0.1,0.1,0.3,0.2,0.4,0.2c0.1,0,0.3,0,0.4-0.1c0.3-0.1,0.5-0.4,0.5-0.7c0-0.2-0.1-0.4-0.2-0.6L11.2,2z"/>
<path class="st0" d="M13.5,0.8c0-0.1,0.1-0.1,0.2-0.2l0,0V0.5L13,0.8v0.1l0,0c0.1,0,0.1,0,0.2,0c0.1,0.1,0.2,0.2,0.2,0.3l0.4,1.1
	L12.2,1l-0.5,0.2v0.1l0,0h0.1c0,0,0.1,0,0.1,0.1l0,0L12.5,3c0,0.1,0.1,0.2,0.1,0.4c0,0.1-0.1,0.1-0.2,0.1l0,0v0.1l0.8-0.2V3.3l0,0
	c-0.1,0-0.1,0-0.2,0c-0.1-0.1-0.2-0.2-0.2-0.4l-0.4-1.3l1.8,1.5h0.1l-0.6-1.9C13.6,1.1,13.6,1,13.5,0.8"/>
<path class="st0" d="M15.5,2.7h-0.1c0,0-0.1,0-0.1,0c0,0,0-0.1-0.1-0.2l-0.4-1.7c0-0.2,0-0.2,0-0.3s0.1-0.1,0.2-0.1l0,0V0.3l-1,0.2
	v0.1l0,0c0.1,0,0.2,0,0.2,0s0.1,0.1,0.1,0.2l0.3,1.7c0,0.2,0,0.2,0,0.2c-0.1,0.1-0.1,0.1-0.2,0.1l0,0V3l1-0.2L15.5,2.7L15.5,2.7z"/>
<path class="st0" d="M16.3,2.5L16.3,2.5c-0.1,0-0.1,0-0.1-0.1L16,0.5c0-0.1,0-0.1,0-0.1h0.1h0.1c0.2,0,0.4,0.1,0.5,0.2
	c0.2,0.2,0.4,0.5,0.4,0.8c0.1,0.3,0,0.7-0.3,0.9C16.7,2.5,16.5,2.5,16.3,2.5L16.3,2.5z M16.9,0.2c-0.2-0.1-0.5-0.1-0.7-0.1l-0.9,0.1
	v0.1l0,0c0.1,0,0.2,0,0.2,0.1c0,0.1,0.1,0.2,0.1,0.2l0.2,1.7c0,0.2,0,0.2,0,0.2s-0.1,0.1-0.2,0.1l0,0v0.1l0.9-0.1
	c0.2,0,0.4-0.1,0.6-0.2c0.1-0.1,0.2-0.1,0.2-0.2c0.1-0.1,0.2-0.3,0.2-0.5c0-0.2,0-0.4,0-0.6C17.5,0.9,17.2,0.5,16.9,0.2"/>
<path class="st0" d="M19.5,1.4c0,0.3-0.1,0.6-0.2,0.9c-0.1,0.2-0.3,0.3-0.5,0.2c-0.2,0-0.3-0.1-0.4-0.3c-0.1-0.3-0.2-0.6-0.1-0.9
	c0-0.3,0.1-0.6,0.2-0.9c0.1-0.2,0.3-0.2,0.4-0.2l0,0c0.2,0,0.3,0.1,0.4,0.3C19.5,0.8,19.5,1.1,19.5,1.4 M18.9,0
	c-0.3,0-0.6,0.1-0.7,0.3c-0.2,0.3-0.4,0.6-0.4,1c0,0.4,0.1,0.7,0.2,1c0.2,0.2,0.4,0.4,0.7,0.4h0c0.3,0,0.5-0.1,0.7-0.3
	c0.2-0.3,0.4-0.6,0.4-1c0-0.4-0.1-0.7-0.3-1C19.5,0.2,19.2,0.1,18.9,0"/>
<path class="st0" d="M21.7,0.4C21.7,0.4,21.7,0.4,21.7,0.4L21.7,0.4L21.7,0.4h-0.2c-0.1-0.1-0.2-0.1-0.2-0.1c-0.2,0-0.3,0-0.5,0.1
	c-0.1,0.1-0.2,0.3-0.2,0.5c-0.1,0.1-0.1,0.3,0,0.5c0,0.1,0.1,0.2,0.2,0.2l0.2,0.2C20.9,1.9,21,2,21.1,2.1c0.1,0.2,0.1,0.4-0.1,0.6
	c-0.1,0-0.2,0.1-0.2,0.1c-0.2,0-0.3-0.2-0.4-0.3c-0.1-0.1-0.1-0.3-0.1-0.4l0,0h-0.1l-0.1,0.9h0.1l0,0V2.8l0,0l0.1,0.1
	C20.4,3,20.5,3,20.6,3h0.1c0.1,0,0.3,0,0.4-0.1c0.3-0.2,0.4-0.6,0.2-0.9c-0.1-0.2-0.2-0.3-0.3-0.4l-0.2-0.2
	c-0.1-0.1-0.1-0.2-0.2-0.2c0-0.1,0-0.2,0-0.2c0-0.1,0.1-0.2,0.1-0.2c0.1,0,0.1,0,0.2,0c0.1,0,0.2,0.1,0.3,0.2
	c0.1,0.2,0.1,0.3,0.1,0.5l0,0h0.1L21.7,0.4l-0.1,0.1L21.7,0.4z"/>
<path class="st0" d="M25.4,4.3c-0.1,0-0.1-0.1-0.1-0.1c0,0,0-0.1,0.1-0.2l0.7-1.6c0-0.1,0.1-0.2,0.1-0.2c0.1,0,0.1,0,0.2,0l0,0V2.1
	l-0.6-0.3l-1.2,1.4l0.1-2L24,1l0,0.1l0,0c0.1,0.1,0.2,0.1,0.2,0.1c0,0.1,0,0.2-0.1,0.2l-0.6,1.4c0,0.1-0.1,0.2-0.2,0.3
	c-0.1,0-0.2,0-0.2,0l0,0l0,0.1l0.7,0.3l0-0.1l0,0c-0.1-0.1-0.1-0.1-0.1-0.1c0-0.1,0-0.3,0.1-0.4l0.5-1.2l-0.1,2h0.1l1.4-1.4
	l-0.6,1.4c0,0.1-0.1,0.2-0.1,0.2c-0.1,0-0.1,0-0.2,0l0,0v0.1l0.8,0.4l0.1-0.1L25.4,4.3z"/>
<path class="st0" d="M27.2,4.8L27.2,4.8C27.1,4.9,26.9,5,26.8,5l0,0c-0.1,0-0.3-0.1-0.4-0.2c-0.1-0.1-0.2-0.1-0.3-0.2
	c0,0,0-0.1,0-0.1l0.5-0.8l0.2,0.2C27,4,27,4.1,27,4.1c0,0.1,0,0.2-0.1,0.3l0,0L27,4.5l0.5-0.8l-0.1-0.1l0,0
	c-0.1,0.1-0.1,0.1-0.2,0.2c0,0-0.1,0-0.2-0.1l-0.2-0.2l0.4-0.7c0,0,0-0.1,0-0.1h0L27.6,3c0.2,0.1,0.2,0.2,0.2,0.2
	c0,0.1,0,0.2-0.1,0.3l0,0l0.1,0.1l0.3-0.5l-1.5-0.8l-0.1,0.1l0,0c0.1,0,0.1,0.1,0.1,0.2c0,0.1,0,0.2-0.1,0.2l-0.9,1.4
	c-0.1,0.1-0.1,0.2-0.2,0.2c-0.1,0-0.1,0-0.2,0l0,0l-0.1,0.1l1.4,0.9l0.5-0.5L27.2,4.8z"/>
<path class="st0" d="M28.7,6.8c0,0-0.1-0.1-0.1-0.2c0-0.1,0-0.2,0-0.2l0.2-1.2L29.6,5c0.1,0,0.3-0.1,0.4-0.1c0.1,0,0.1,0,0.2,0.1
	l0,0l0.1-0.1l-0.6-0.5l-0.1,0.1l0,0l0.1,0.1c0,0,0,0.1,0,0.1h0c-0.1,0-0.1,0.1-0.2,0.1l-0.5,0.2l0.1-0.6V4.2c0,0,0-0.1,0-0.1
	c0,0,0,0,0.1,0s0,0,0.1,0.1l0,0l0.1-0.1l-0.8-0.6l-0.1,0.1l0,0c0.1,0.1,0.1,0.1,0.1,0.2c0,0.2,0,0.4-0.1,0.6L28.3,5l-0.8,0.2
	l-0.4,0.1c-0.1,0-0.1,0-0.2-0.1l0,0l-0.1,0.1l0.6,0.5l0.1-0.1l0,0l0-0.1c0,0,0-0.1,0-0.1c0,0,0.1-0.1,0.1-0.1l0.2-0.1l0.6-0.2
	C28.3,5.7,28.2,6,28.2,6c0,0.1,0,0.1-0.1,0.2h-0.1c-0.1,0-0.1-0.1-0.1-0.1l0,0l-0.1,0.1l0.7,0.6L28.7,6.8L28.7,6.8z"/>
<path class="st0" d="M29.5,7.1L30.7,6c0.1-0.1,0.2-0.1,0.2-0.1s0.1,0,0.2,0.1l0,0l0.1-0.1l-0.7-0.7l-0.1,0.1l0,0
	c0.1,0.1,0.1,0.2,0.1,0.2s0,0.1-0.1,0.2l-1.2,1.2C29,7,28.9,7,28.9,7s-0.1,0-0.2-0.1l0,0L28.6,7l0.7,0.7l0.1-0.1l0,0
	c-0.1-0.1-0.1-0.2-0.1-0.2S29.3,7.3,29.5,7.1"/>
<path class="st0" d="M30.9,9L30.9,9V8.8l0,0c-0.1,0-0.2,0-0.3,0c-0.1,0-0.3-0.1-0.4-0.2c-0.1-0.2-0.2-0.4-0.1-0.6
	c0.1-0.3,0.3-0.5,0.5-0.7c0.2-0.2,0.5-0.3,0.8-0.4c0.2,0,0.4,0,0.5,0.2c0.1,0.2,0.1,0.4,0.1,0.6C32,7.8,31.9,8,31.8,8.1l0,0l0.1,0.1
	l0.7-0.6l-0.1-0.1l0,0c0,0-0.1,0-0.1,0h-0.1l-0.1-0.2c0-0.1-0.1-0.2-0.2-0.3c-0.2-0.2-0.5-0.4-0.8-0.4l0,0c-0.3,0-0.7,0.1-0.9,0.4
	c-0.3,0.2-0.5,0.5-0.6,0.8c-0.1,0.3,0,0.6,0.2,0.9c0.1,0.2,0.3,0.3,0.5,0.3H30.9L30.9,9"/>
<path class="st0" d="M32.8,9.1l-0.6,0.7l-0.3-0.5L32.8,9.1z M31.8,11c0,0,0-0.1,0-0.1c0-0.1,0.1-0.2,0.2-0.2l1.5-1.8l0-0.1l-2,0.4
	c-0.2,0-0.4,0.1-0.5,0.1c-0.1,0-0.1,0-0.2-0.1l0,0l-0.1,0.1L31,9.8l0.1-0.1l0,0c0,0,0-0.1,0-0.1c0,0,0-0.1,0.1-0.1h0.1l0.4-0.1
	l0.4,0.6l-0.2,0.3c0,0-0.1,0.1-0.1,0.1c0,0,0,0-0.1,0.1c0,0-0.1,0-0.1,0c0,0-0.1-0.1-0.1-0.1l0,0l-0.1,0.1l0.4,0.7l0.1-0.1L31.8,11z
	"/>
<path class="st0" d="M34.6,12c0.1,0,0.1,0.1,0.2,0.2l0,0l0.1,0l-0.3-0.7l-0.1,0l0,0c0,0.1,0,0.2,0,0.2s-0.1,0.1-0.3,0.2l-1.1,0.4
	l1.2-1.7l-0.2-0.5l-0.1,0.1l0,0c0,0,0,0.1,0,0.1c0,0,0,0.1-0.1,0.1l0,0L32.3,11c-0.1,0.1-0.2,0.1-0.3,0.1c-0.1,0-0.1-0.1-0.2-0.2
	l0,0l-0.1,0l0.3,0.7l0.1,0l0,0c0-0.1,0-0.1,0-0.2c0.1-0.1,0.2-0.1,0.4-0.2l1.3-0.5l-1.4,1.9l0,0v0.1l1.9-0.8
	C34.4,12,34.5,12,34.6,12"/>
<path class="st0" d="M33.3,14.5c-0.2,0-0.3-0.2-0.4-0.4c0-0.2,0-0.4,0.2-0.5c0.2-0.2,0.5-0.3,0.8-0.4c0.2,0,0.4-0.1,0.5-0.1
	c0.1,0,0.2,0,0.3,0c0.3,0.1,0.4,0.3,0.4,0.6c0,0.1-0.1,0.2-0.2,0.3c-0.2,0.2-0.5,0.3-0.8,0.4C33.9,14.6,33.6,14.6,33.3,14.5
	 M33.8,15c0.2,0,0.3,0,0.5-0.1c0.4-0.1,0.7-0.3,0.9-0.5c0.2-0.2,0.2-0.5,0.2-0.8c-0.1-0.3-0.3-0.5-0.5-0.6c-0.3-0.2-0.7-0.2-1-0.1
	c-0.3,0.1-0.6,0.2-0.9,0.5c-0.2,0.2-0.3,0.5-0.2,0.8c0.1,0.3,0.3,0.5,0.5,0.6C33.4,14.9,33.6,15,33.8,15"/>
<path class="st0" d="M35.8,16.2L35.8,16.2L35.8,16.2C35.7,16.2,35.7,16.2,35.8,16.2c-0.1-0.1-0.1-0.2-0.1-0.2c0-0.1,0-0.2,0-0.3
	c0-0.2-0.1-0.3-0.2-0.5c-0.2-0.1-0.3-0.1-0.5-0.1c-0.1,0-0.3,0.1-0.4,0.2c-0.1,0.1-0.1,0.1-0.2,0.2l-0.2,0.3
	c-0.1,0.1-0.1,0.2-0.2,0.3c-0.1,0.1-0.2,0.1-0.3,0.1c-0.1,0-0.2,0-0.3-0.1c-0.1,0-0.1-0.1-0.1-0.2c0-0.2,0.1-0.3,0.2-0.5
	c0.1-0.1,0.2-0.2,0.4-0.2l0,0v-0.1L33,15.5v0.1l0,0h0.1l0,0c0,0.1,0,0.1,0,0.2c0,0.1,0,0.2,0,0.3c0,0.2,0.1,0.4,0.3,0.5
	c0.1,0.1,0.3,0.1,0.4,0.1h0.1c0.1,0,0.3-0.1,0.4-0.1c0.1-0.1,0.2-0.3,0.3-0.4l0.2-0.3c0-0.1,0.1-0.2,0.2-0.2
	c0.1-0.1,0.1-0.1,0.2-0.1c0.1,0,0.2,0,0.2,0.1c0.1,0,0.1,0.1,0.1,0.2c0,0.1,0,0.2-0.1,0.3c-0.1,0.1-0.3,0.2-0.5,0.3l0,0v0.1
	L35.8,16.2L35.8,16.2z"/>
<path class="st0" d="M17.5,34.2c-0.1,0-0.2-0.1-0.2-0.2c-0.1-0.4-0.1-0.7,0-1.1c0-0.1,0.1-0.2,0.2-0.2c0.1,0,0.2,0.1,0.2,0.2
	c0,0.3,0,0.7,0,1C17.7,34.1,17.6,34.2,17.5,34.2"/>
<path class="st0" d="M18.5,34.2c-0.1,0-0.2,0-0.3-0.1c0,0,0,0,0,0v-0.9c0-0.1,0-0.2,0.1-0.3c0-0.1,0.1-0.1,0.2-0.1
	c0.2,0,0.3,0.1,0.3,0.3c0,0,0,0,0,0v0.8c0,0.1,0,0.1-0.1,0.2C18.6,34.1,18.6,34.2,18.5,34.2"/>
<path class="st0" d="M15.3,34.9h-0.1c-0.1,0-0.2-0.1-0.2-0.2c0-0.1,0.1-0.2,0.1-0.2h0.1c0.1,0,0.2,0,0.3,0.1c0,0.1,0,0.1,0,0.2
	C15.4,34.9,15.4,34.9,15.3,34.9"/>
<path class="st0" d="M20.5,35c-0.1,0-0.1,0-0.2-0.1c0-0.1,0-0.1,0-0.2c0-0.1,0.1-0.2,0.2-0.2h0.1c0.1,0,0.2,0.1,0.2,0.2
	c0,0.1-0.1,0.2-0.2,0.2C20.6,34.9,20.5,34.9,20.5,35"/>
<path class="st0" d="M15.8,34.5h-0.1l-0.2-0.2c0,0,0-0.1,0-0.1c0.3-0.3,0.8-0.5,1.2-0.6l0,0c0.1,0,0.1,0.1,0.2,0.1
	c0,0.1,0,0.2-0.1,0.3c-0.3,0-0.5,0.1-0.7,0.3C15.9,34.4,15.9,34.5,15.8,34.5"/>
<path class="st0" d="M20,34.5C20,34.5,20,34.5,20,34.5c-0.3-0.2-0.6-0.4-0.9-0.4c0,0-0.1,0-0.1-0.1s0-0.3,0-0.3
	c0.5,0,0.9,0.2,1.3,0.5v0.1v0L20,34.5L20,34.5z"/>
<path class="st0" d="M19.2,36.4c-0.1,0-0.1,0-0.1-0.1c-0.3-0.2-0.7-0.3-1-0.5c-0.1,0-0.1-0.1-0.1-0.2c0-0.1,0.1-0.2,0.3-0.2h0.1
	c0.2,0.1,0.3,0.2,0.5,0.2c0.2,0.1,0.4,0.2,0.5,0.3c0,0,0.1,0.1,0.1,0.1c0,0,0,0.1,0,0.1l-0.1,0.2C19.3,36.3,19.3,36.4,19.2,36.4"/>
<path class="st0" d="M15.4,36.1L15.4,36.1c0,0,0-0.1,0-0.1c0-0.5,0.5-0.8,1-1.2l0.5-0.3c0,0,0.1-0.1,0.2-0.1c0,0,0,0,0.1,0l0.3,0.2
	c0,0,0.1,0,0.1,0.1c0,0,0,0.1,0,0.1c-0.2,0.1-0.3,0.3-0.5,0.4c-0.3,0.2-0.6,0.4-0.8,0.7C15.8,35.9,15.6,36,15.4,36.1L15.4,36.1z"/>
<path class="st0" d="M16.8,36.3h-0.1l-0.2-0.2c-0.1-0.1-0.1-0.2,0.1-0.4c0.2-0.2,0.4-0.4,0.7-0.5c0.3-0.2,0.5-0.4,0.7-0.6
	c0.1-0.1,0.2-0.2,0.3-0.2h0.1h0.2c0.1,0,0.2,0,0.2,0s-0.1,0.2-0.1,0.3c-0.2,0.3-0.5,0.6-0.9,0.8c-0.3,0.2-0.5,0.4-0.7,0.7
	C16.9,36.3,16.8,36.3,16.8,36.3"/>
<path class="st0" d="M20.5,35.9h-0.2c-0.1,0-0.2-0.1-0.3-0.2c-0.1-0.1-0.3-0.2-0.4-0.3l-0.4-0.1c-0.1-0.1-0.3-0.1-0.4-0.2
	c-0.1,0-0.1-0.1-0.1-0.1c0-0.1,0.1-0.2,0.1-0.3s0.1-0.1,0.1-0.1c0,0,0.1,0,0.1,0c0.2,0.1,0.3,0.2,0.5,0.3c0.5,0.2,0.9,0.5,1.2,0.9
	c0,0,0,0.1,0,0.1c0,0,0,0-0.1,0L20.5,35.9"/>
<path class="st0" d="M13.5,33.9c0.2,0,0.4,0,0.5,0.1c0,0.1,0,0.2,0,0.3c-0.1,0.1,0,0.2,0,0.2c0,0,0.1,0,0.1,0c0.1,0,0.3-0.2,0.4-0.4
	c0-0.1,0.1-0.2,0.3-0.2c0.1-0.1,0.2-0.2,0.1-0.3c0-0.1-0.1-0.2-0.1-0.1c0,0-0.1,0-0.1,0c-0.1,0.1-0.2,0.1-0.3,0.2h-0.1
	c-0.2,0-0.4-0.1-0.5-0.2l-0.3-0.5c0-0.1-0.1-0.1-0.1-0.1l0,0l0,0c0,0.1,0,0.1,0,0.2l0.2,0.3c0,0,0,0.1,0,0.1c0,0-0.1,0.1-0.1,0.1
	l0,0c-0.5,0-1-0.3-1.2-0.7c0-0.1-0.1-0.1-0.1-0.1l0,0l0,0c0,0.1,0,0.1,0,0.2l0.2,0.2c0.1,0.1,0.1,0.1,0.1,0.1c0,0-0.1,0-0.1,0
	c-0.5,0-0.9-0.2-1.2-0.5c0,0-0.1,0-0.1,0c-0.1,0.1-0.1,0.1,0,0.1l0.1,0.2c0,0,0,0.1,0,0.1c0,0,0,0-0.1,0l-0.7,0.1
	c-0.1,0-0.2,0-0.2,0.1s0.1,0.1,0.2,0.1c0.5-0.1,1,0,1.5,0.1c0,0,0.1,0,0.1,0c0,0,0,0.1,0,0.1l-0.2,0.3c-0.1,0.1-0.1,0.1-0.1,0.2
	c0,0,0.1,0,0.1,0h0.1c0.3-0.2,0.6-0.3,0.9-0.4c0.1,0,0.2,0,0.2,0c0.1,0,0.1,0,0.1,0.1c0,0.1,0,0.1,0,0.2l-0.3,0.5c0,0.1,0,0.1,0,0.2
	l0,0c0.1,0,0.1,0,0.1-0.1C12.8,34.2,13.1,33.9,13.5,33.9L13.5,33.9z M13.3,35.2c-0.1,0-0.1,0-0.2-0.1c0,0,0-0.1,0-0.1l0.2-0.4
	c0,0,0-0.1,0-0.1c0,0-0.1,0-0.1,0c-0.1,0-0.2,0.1-0.2,0.1c-0.3,0.3-0.6,0.5-1,0.5c-0.1,0-0.2,0-0.3,0c-0.1,0-0.2,0-0.2-0.1
	c0-0.1,0-0.1,0.1-0.2l0.3-0.4c0-0.1,0-0.1,0-0.2l0,0h-0.1h-0.1L11,34.6c-0.1,0-0.2,0.1-0.2,0.1c-0.2,0-0.3,0-0.4-0.2
	c0,0-0.1-0.1-0.1-0.1h0.1c0.1-0.1,0.2-0.2,0.3-0.3c0,0,0-0.1,0-0.2c0,0-0.1-0.1-0.2-0.1L9.8,34C9.5,34,9.2,34,9,33.9
	c-0.1,0-0.1-0.1-0.1-0.2c0-0.1,0.1-0.2,0.2-0.3l0.7-0.3c0.1,0,0.1-0.1,0.1-0.1c0-0.1,0-0.1-0.1-0.1c0,0,0-0.1,0-0.1
	c0,0,0.1-0.1,0.1-0.1c0.1-0.1,0.2-0.1,0.3-0.1c0.3,0,0.6,0.1,0.8,0.4c0,0,0.1,0,0.1,0c0-0.1,0-0.1,0-0.2l-0.1-0.3c0-0.1,0-0.1,0-0.2
	c0,0,0.1-0.1,0.1-0.1c0.4,0,0.7,0.2,1.1,0.7c0,0.1,0.1,0.1,0.2,0.1l0,0h0.1c0-0.1,0-0.2-0.1-0.2l-0.1-0.3c0-0.1,0-0.1,0-0.2
	c0.1-0.1,0.1-0.1,0.2-0.1h0.2c0.3,0,0.4,0,0.5,0.2l0.4,0.6c0,0.1,0.1,0.1,0.2,0.1c0.1,0,0.1-0.1,0.2-0.2s0.1-0.1,0.1-0.1
	s0.3,0.1,0.6,0.4c0.1,0.1,0.2,0.1,0.4,0.1c0.1,0,0.2,0,0.2-0.1c0.3-0.1,0.6-0.2,0.9-0.2c0.1,0,0.3,0,0.4,0c0.1,0,0.2,0.1,0.1,0.2
	c0,0,0,0,0,0c0,0.1-0.1,0.2-0.4,0.2h-0.3c-0.4,0.1-0.8,0.3-1.1,0.5c-0.1,0.1-0.2,0.1-0.3,0.1c-0.1,0-0.1,0-0.2,0.1
	c-0.1,0-0.2,0.2-0.4,0.3c-0.2,0.4-0.6,0.6-1,0.7"/>
<path class="st0" d="M7.3,31.3c0.2,0,0.3,0,0.3,0.1c0,0,0,0.1,0,0.1c0,0.1,0,0.2,0.1,0.2h0.6c0.1,0,0.1,0,0.1,0c0,0,0-0.1,0-0.1
	c-0.1-0.2-0.2-0.3-0.3-0.3H8.1c-0.1,0-0.1,0-0.2,0c-0.2-0.1-0.4-0.5-0.3-1.2c0-0.1,0-0.1,0-0.2l0,0c-0.1,0-0.1,0-0.1,0.2l-0.1,0.3
	c0,0.2-0.1,0.2-0.1,0.2H7.2c-0.3-0.2-0.5-0.5-0.6-0.9c0-0.2,0-0.9-0.2-0.4C6.3,29.3,6.2,29,6,28.8S6,28.7,5.9,28.7
	c0,0-0.1,0.1-0.1,0.2c0,0.1,0,0.2-0.1,0.2c-0.1,0-0.1,0.1-0.1,0.1s0,0.1,0.1,0.1s0.4,0.3,0.6,0.8c0,0,0,0.1,0,0.1H5.8H5.7
	c-0.1,0-0.1,0-0.1,0.1s0.1,0.1,0.2,0.1l0.7,0.1c0.2,0,0.5,0.1,0.6,0.3c0.1,0.1,0.1,0.2,0.1,0.2C7.1,31,7,31,7,31
	c-0.3,0.1-0.5,0.2-0.8,0.2c-0.1,0-0.2,0-0.2,0.1s0,0.1,0.2,0.1c0.1,0,0.2,0,0.3,0c0.1,0,0.3,0,0.4-0.1C7.1,31.3,7.2,31.3,7.3,31.3
	 M9.6,32.5c0,0-0.1,0-0.1,0C9.1,32.2,8.5,32,8,32c-0.2,0-0.4,0.1-0.6,0.1c0,0-0.1,0-0.1-0.1c0-0.1,0-0.1,0-0.2
	c0-0.1-0.1-0.2-0.2-0.2H6.9H6.7c-0.5,0.1-1-0.1-1.3-0.5c0,0,0-0.1,0-0.1c0,0,0,0,0.1,0L6.3,31c0.1,0,0.1-0.1,0.1-0.1c0,0,0,0,0,0
	c0,0,0-0.1-0.1-0.1c-0.9-0.2-1.4-0.4-1.6-0.8c0,0,0-0.1,0-0.1c0,0,0.1,0,0.2,0l0.7,0.1c0.1,0,0.2,0,0.2-0.1s0-0.1-0.1-0.2l-0.7-0.4
	c-0.1,0-0.1-0.1-0.1-0.2c0-0.1,0.1-0.1,0.2-0.1h0.3c0.1,0,0.2,0,0.2-0.1c0.1-0.1,0.1-0.2,0.1-0.4v-0.2c0-0.2,0-0.2,0.1-0.2
	s0.1,0,0.4,0.3c0.1,0.1,0.2,0.2,0.2,0.2s0.1-0.1,0.2-0.4s0.1-0.1,0.1-0.1c0.1,0,0.1,0,0.2,0.1C7,28.2,7,28.9,7,29.5c0,0,0,0.1,0,0.1
	c0,0,0.1,0,0.1,0c0,0,0.1,0,0.1-0.2L7.3,29c0-0.1,0.1-0.2,0.2-0.2c0.1,0,0.2,0,0.2,0.1c0.3,0.2,0.3,0.6,0.3,1.5c0,0.1,0,0.1,0.1,0.2
	c0,0,0.1,0,0.1,0c0.1,0,0.1-0.1,0.2-0.2c0-0.1,0.1-0.1,0.1-0.1s0.1,0,0.1,0.2c0.1,0.7,0.4,1.3,1,1.8c0.1,0,0.1,0.1,0,0.2
	C9.6,32.5,9.6,32.5,9.6,32.5"/>
<path class="st0" d="M9.4,30.9c-0.1,0-0.2-0.1-0.2-0.1c0-0.1,0-0.1,0.1-0.2c0.1-0.1,0.2-0.1,0.3-0.1c0.1,0,0.2,0,0.2,0.1
	c0.1,0,0.1,0.1,0.1,0.2C9.7,30.8,9.6,30.9,9.4,30.9L9.4,30.9z"/>
<path class="st0" d="M7.7,33.1H7.6c-0.1,0-0.2-0.1-0.2-0.3c0-0.1,0-0.2,0.1-0.2h0.2c0.1,0,0.2,0.1,0.3,0.3C8,33,8,33,7.9,33.1
	C7.9,33.1,7.8,33.1,7.7,33.1"/>
<path class="st0" d="M10,32.2c-0.1,0-0.2-0.1-0.3-0.3c-0.1-0.2-0.2-0.3-0.4-0.3c-0.1,0-0.2-0.1-0.1-0.3c0-0.1,0.1-0.2,0.2-0.2h0.1
	c0.1,0,0.3,0,0.4-0.1h0.1c0.1,0,0.2,0,0.2,0.1c0,0.1,0,0.2,0,0.2c-0.1,0.1-0.2,0.2-0.1,0.4C10,31.9,10.1,32.1,10,32.2L10,32.2z"/>
<path class="st0" d="M8.4,33.2c-0.1,0-0.2,0-0.2-0.1c0-0.1,0-0.3-0.1-0.4c-0.1-0.1-0.1-0.2,0-0.3c0-0.1,0.1-0.1,0.2-0.1
	c0.1,0,0.1,0,0.2,0c0.1,0.1,0.3,0.2,0.5,0.2c0.1,0,0.3,0,0.4,0.1c0.1,0,0.1,0.1,0.1,0.1H9.2l0,0c-0.2,0-0.4,0.1-0.6,0.3
	C8.6,33.1,8.5,33.2,8.4,33.2"/>
<path class="st0" d="M3.2,26.8C3.1,26.8,3.1,26.8,3.2,26.8C3.1,27,3.1,27,3.2,27c0.3,0,0.5,0,0.6,0.1c0,0,0.1,0.1,0.1,0.1l0,0v0
	c0,0,0-0.1,0-0.1c-0.1-0.2-0.1-0.3,0.1-0.6c0,0,0.1-0.1,0.1-0.2l0,0H4H3.9c0,0-0.1,0-0.1,0c-0.1,0-0.2,0-0.3-0.1
	c-0.1-0.2-0.1-0.4,0-0.6c0.1-0.3,0.2-0.6,0.3-1c0-0.1,0-0.1,0-0.2l0,0c-0.1,0-0.1,0.1-0.1,0.1c-0.1,0.2-0.2,0.3-0.2,0.5
	s-0.2,0.4-0.2,0.4S3,25.1,2.9,24.9c-0.1-0.2-0.1-0.5,0-0.8c0,0,0-0.1,0-0.1H2.8c0,0-0.1,0-0.1,0.1s-0.1,0.2-0.2,0.2S2.4,24.2,2.2,24
	c0,0-0.1,0-0.1,0C2.1,24,2,24,2,24.1c0,0.1,0,0.1,0,0.2l0.1,0c0.1,0.1,0.3,0.3,0.3,0.4l0,0c-0.1,0-0.2,0-0.3,0H2
	c-0.1,0-0.1,0-0.1,0.1s0,0.1,0.1,0.1c0.6,0,1.1,0.5,1,0.8c0,0.1-0.1,0.2-0.2,0.2c-0.1,0-0.3,0-0.4-0.1h0c0,0-0.1,0-0.1,0.1
	c0,0,0,0.1,0.2,0.1c0.6,0,1.1,0.4,1.1,0.6S3.3,26.8,3.2,26.8L3.2,26.8z M5.2,28.6H5.1c-0.4-0.2-0.7-0.5-1-0.8
	c-0.1-0.3-0.4-0.4-0.7-0.5c-0.4,0-0.8-0.2-1.1-0.5c-0.1-0.1,0-0.1,0-0.1s0,0,0.1,0h0.3c0.1,0,0.1,0,0.1-0.1s-0.1-0.1-0.2-0.2
	c-0.8-0.1-1.2-0.4-1.3-0.7c0-0.1,0-0.1,0-0.2s0.1,0,0.1-0.1h0.2c0.1,0,0.1-0.1,0.1-0.1c0,0,0,0,0,0c0,0,0-0.1-0.2-0.1
	c-0.3-0.1-0.5-0.2-0.7-0.5c0-0.1,0-0.2,0-0.3c0-0.1,0.1-0.1,0.2-0.1c0,0,0.1,0,0.1,0c0.1,0,0.1,0,0.2,0c0,0,0.1,0,0.1-0.1
	c0-0.1,0-0.2-0.1-0.3c0-0.1,0-0.1,0-0.2c0-0.1,0.1-0.1,0.2-0.1c0.1,0,0.1,0,0.2,0c0.1,0,0.2-0.1,0.3-0.2c0,0,0.1,0,0.1,0
	c0.1,0,0.1,0,0.2,0.1S2.5,24,2.6,24s0.1,0,0.2-0.2s0.1-0.3,0.2-0.3c0.1,0,0.1,0,0.1,0c0.2,0.1,0.2,0.4,0,0.9c0,0.1,0,0.1,0,0.2l0,0
	h0.1c0.1,0,0.2-0.1,0.2-0.3c0-0.4,0.2-0.6,0.3-0.6h0.1c0.1,0,0.2,0.1,0.3,0.2c0.1,0.5,0.1,1-0.1,1.4c0,0.1,0,0.2,0,0.2
	c0,0,0.1,0,0.1,0c0.1,0,0.1,0,0.2-0.1c0.1-0.1,0.1-0.1,0.2-0.1c0,0,0.1,0,0.1,0c0.1,0.2,0.1,0.4,0,0.5c-0.6,0.7-0.4,1.7,0.2,2.2
	c0.1,0.1,0.2,0.2,0.3,0.2C5.3,28.4,5.3,28.4,5.2,28.6C5.3,28.6,5.3,28.6,5.2,28.6"/>
<path class="st0" d="M5,28c0,0-0.1,0-0.1-0.1c0-0.5-0.1-0.7-0.2-0.8c0-0.1,0-0.2,0-0.3c0,0,0.1-0.1,0.1-0.1h0.1
	c0.2,0.1,0.4,0.1,0.6,0.1c0.1,0,0.2,0.1,0.2,0.2c0,0.1,0,0.1-0.1,0.2c-0.3,0-0.4,0.3-0.4,0.5c0,0,0,0,0,0C5.2,27.9,5.1,28,5,28"/>
<path class="st0" d="M5.4,26.5H5.2c-0.1,0-0.2-0.1-0.2-0.2c0-0.1,0.1-0.2,0.2-0.2h0.1c0.1,0,0.2,0,0.2,0.1c0.1,0.1,0.1,0.2,0.1,0.2
	C5.6,26.5,5.5,26.6,5.4,26.5"/>
<path class="st0" d="M3.1,28.5c-0.1,0-0.2-0.1-0.2-0.2c-0.1-0.1-0.1-0.2,0-0.3c0-0.1,0.1-0.1,0.2-0.1c0.1,0,0.2,0.1,0.2,0.2
	c0,0.1,0,0.2,0,0.3C3.3,28.4,3.2,28.4,3.1,28.5"/>
<path class="st0" d="M3.6,28.8c-0.1,0-0.1,0-0.2-0.1c0,0,0-0.1,0-0.1c0-0.2,0-0.4,0-0.5c0-0.1,0.1-0.2,0.2-0.3c0.1,0,0.2,0,0.2,0.1
	c0.1,0.2,0.2,0.3,0.4,0.4c0.3,0.1,0.4,0.3,0.3,0.3c0,0-0.1,0-0.1,0c0,0-0.1,0-0.1,0c-0.1-0.1-0.2-0.1-0.3-0.1c-0.1,0-0.2,0-0.2,0.1
	C3.8,28.7,3.7,28.8,3.6,28.8"/>
<path class="st0" d="M0.8,19.7c0,0,0,0.1,0,0.2c0.2,0.3,0.4,0.7,0.3,0.9c0,0.1-0.1,0.1-0.1,0.1c0,0-0.1,0-0.2,0.1c0,0,0,0.1,0,0.1
	c0.1,0.1,0.1,0.1,0.2,0.1c0.2,0.1,0.2,0.1,0.2,0.3v0.2c0.1,0.1,0.2,0.2,0.3,0.2c0.1,0,0.1,0,0.1-0.1c0-0.1,0-0.3-0.2-0.3
	c-0.1,0-0.1,0-0.1-0.1s0-0.1,0.2-0.2c0.3-0.3,0.3-0.4,0.3-0.4l0,0l0,0l-0.1,0H1.6c-0.2,0-0.2-0.1-0.2-0.3s0-0.4,0.2-0.5
	c0.3-0.2,0.4-0.3,0.4-0.3s-0.1-0.1-0.2,0H1.6l0,0c0,0,0-0.1,0-0.1c0-0.3,0.2-0.5,0.3-0.7C2,18.8,2.1,18.7,2,18.7s-0.1,0-0.2,0
	c-0.1,0-0.3,0.1-0.4,0.2c-0.1,0.1-0.1,0.2-0.1,0.4l-0.1,0.5c0,0.1,0,0.2-0.1,0.2c0,0-0.1,0-0.1,0C1,19.8,0.9,19.7,0.8,19.7L0.8,19.7
	L0.8,19.7z M2.2,23.5L2.2,23.5c-0.2-0.1-0.4-0.3-0.4-0.4c-0.1-0.7-0.3-0.9-0.5-1s-0.4-0.3-0.4-0.4c0-0.3-0.1-0.4-0.3-0.4
	c-0.3,0-0.5-0.2-0.6-0.5c0-0.1,0-0.3,0-0.4c0,0,0.1,0,0.1,0c0.1,0,0.2,0.1,0.3,0.1h0.1c0,0,0.1,0,0.1-0.1c0-0.1,0-0.2,0-0.2
	l-0.2-0.4c-0.1-0.2-0.1-0.4,0.1-0.6c0.1-0.2,0.2-0.2,0.2-0.2c0,0,0,0,0.1,0C1,19.1,1,19.2,1.1,19.2s0.1-0.2,0.1-0.2
	c0-0.4,0.1-0.9,0.4-1c0,0,0.1,0,0.1,0C1.8,18,1.9,18,2,18c0.2,0,0.3-0.1,0.4-0.3l0.1,0c0,0,0.1,0,0.2,0.2c0.1,0.3,0,0.6-0.3,0.9
	C2.3,18.9,2.2,19,2.3,19c0,0.1,0,0,0.1,0c0.1,0,0.3-0.1,0.4-0.2c0,0,0.1,0,0.1,0c0,0,0.1,0,0.1,0.2c0.1,0.4-0.2,0.7-0.8,1
	C2,20,2,20.1,2,20.2c0,0.1,0.1,0.1,0.1,0.1c0,0,0,0,0,0c0,0,0.1,0,0.1,0c0.1-0.1,0.2-0.1,0.3-0.2c0.1,0,0.2,0,0.2,0.1
	c0,0.1,0,0.3-0.2,0.5s-0.2,0.3-0.3,0.4S2.1,21.2,2,21.3s0,0.1,0,0.1s0.1,0.2,0,0.3c-0.2,0.2-0.2,0.7,0.1,1.4
	C2.2,23.2,2.2,23.3,2.2,23.5C2.2,23.5,2.1,23.5,2.2,23.5"/>
<path class="st0" d="M3.2,21.8c-0.1,0-0.2,0-0.2,0c-0.1,0-0.1-0.1-0.1-0.2c0-0.1,0.1-0.2,0.2-0.3c0.2,0,0.3,0,0.3,0.1
	c0,0.1,0,0.2,0,0.3C3.3,21.7,3.2,21.8,3.2,21.8"/>
<path class="st0" d="M0.3,22.7c-0.1,0-0.1,0-0.2,0C0,22.6,0,22.4,0.1,22.3c0-0.1,0.1-0.2,0.2-0.2h0.1c0.1,0,0.1,0,0.2,0.1
	c0,0.1,0,0.2,0,0.3C0.5,22.6,0.4,22.6,0.3,22.7"/>
<path class="st0" d="M1.6,23.3L1.6,23.3C1.3,23.2,1.2,23,1,23.1c-0.1,0-0.1,0-0.2,0.1H0.7c-0.1,0-0.2,0-0.2-0.1c0-0.1,0-0.1,0-0.2
	c0.1-0.2,0.2-0.3,0.3-0.5c0-0.1,0.1-0.1,0.2-0.1c0.1,0,0.2,0.1,0.2,0.2c0,0,0,0,0,0l0.1,0.2L1.6,23C1.6,23.1,1.6,23.2,1.6,23.3
	L1.6,23.3z"/>
<path class="st0" d="M2.5,23.1c0,0,0,0-0.1-0.1c0-0.1,0-0.3,0-0.4c0.1-0.1,0.1-0.3,0-0.4c0-0.1,0-0.2,0-0.2c0-0.1,0.1-0.1,0.2-0.1
	h0.1C2.8,21.9,3,22,3.1,22c0.1,0,0.2,0.1,0.2,0.2c0,0.1-0.1,0.2-0.2,0.2c-0.2,0-0.3,0.2-0.4,0.5C2.6,23,2.6,23.1,2.5,23.1"/>
<path class="st0" d="M26.4,31.4c-0.1,0-0.1,0-0.2-0.1c0-0.1,0-0.1,0-0.2c0-0.1,0-0.2-0.2-0.3c-0.1-0.1-0.1-0.3-0.1-0.4
	c0.1-0.1,0.2-0.2,0.4-0.2c0.1,0,0.3,0,0.4,0.1c0.1,0.2,0.1,0.3,0,0.5c-0.1,0.1-0.1,0.2-0.1,0.3c0,0.1,0,0.3-0.1,0.3
	C26.5,31.4,26.5,31.4,26.4,31.4"/>
<path class="st0" d="M30.9,27.4c-0.1,0-0.2-0.1-0.2-0.2c0-0.1-0.1-0.2-0.3-0.2s-0.3-0.2-0.3-0.4c0.1-0.2,0.3-0.4,0.5-0.4
	c0.2,0,0.3,0.1,0.4,0.4c-0.1,0.1,0,0.3,0.1,0.3c0.1,0.1,0.1,0.1,0.1,0.2C31.1,27.3,31,27.4,30.9,27.4"/>
<path class="st0" d="M33.3,22.1c-0.1,0-0.2,0-0.2-0.1c0-0.1-0.2-0.2-0.3-0.1h-0.1c-0.3,0-0.3-0.2-0.3-0.4c0-0.2,0.2-0.4,0.4-0.5
	c0.2,0,0.3,0.1,0.4,0.3v0c0,0.1,0,0.2,0.2,0.2c0.1,0,0.2,0.1,0.1,0.2C33.6,22,33.5,22.1,33.3,22.1"/>
<path class="st0" d="M27.5,33.1c-0.2,0-0.3-0.1-0.4-0.3c0-0.1-0.1-0.2-0.2-0.3c-0.1,0-0.2-0.1-0.2-0.2c0-0.1,0.1-0.2,0.2-0.2
	c0.1,0,0.1,0,0.2,0.1c0,0.1,0.1,0.1,0.2,0.1l0.1,0c0.3,0,0.4,0.1,0.4,0.3C27.9,32.9,27.7,33.1,27.5,33.1"/>
<path class="st0" d="M32.6,28.3c-0.1,0-0.2,0-0.3-0.1c-0.1-0.1-0.1-0.1-0.2-0.1H32h-0.1c-0.1,0-0.1,0-0.2-0.1c0,0-0.1-0.1-0.1-0.1
	c0-0.1,0.1-0.3,0.2-0.3c0,0,0,0,0,0H32c0,0,0.1,0,0.1,0c0.1,0,0.2-0.1,0.2-0.2c0.1,0,0.1-0.1,0.2-0.1c0.1,0,0.2,0,0.3,0.1
	c0.1,0.2,0.1,0.4,0,0.5C32.8,28.2,32.7,28.3,32.6,28.3"/>
<path class="st0" d="M35.2,22.5c-0.1,0-0.1,0-0.2,0c-0.1-0.1-0.3-0.1-0.4,0h-0.1c-0.1,0-0.2-0.1-0.2-0.2c0,0,0,0,0,0
	c0-0.1,0-0.1,0-0.2c0,0,0.1-0.1,0.2-0.1h0.1c0.1,0,0.2-0.1,0.2-0.2c0.1-0.1,0.2-0.1,0.3-0.2c0.1,0,0.2,0.1,0.3,0.1
	c0.1,0.1,0.2,0.3,0.1,0.5C35.4,22.4,35.3,22.5,35.2,22.5"/>
<path class="st0" d="M22.3,34.5c-0.1,0-0.3,0-0.4,0c-0.4-0.1-0.8-0.3-1.2-0.6c-0.5-0.3-1-0.4-1.6-0.5c-0.1,0-0.2-0.1-0.2-0.2
	c0,0,0,0,0,0c0-0.1,0.1-0.2,0.2-0.2c0.6,0.1,1.3,0.3,1.9,0.5c0.1,0,0.2,0.1,0.4,0.1c0.2,0,0.3-0.1,0.4-0.2l0.2-0.1
	c1-0.5,2.2-0.9,3.3-1.1h0.4c0.1,0,0.2,0,0.2,0s0,0.1-0.3,0.1h-0.1c-0.2,0-0.5,0.1-0.7,0.2L23.9,33c-0.4,0.3-0.9,0.4-1.3,0.5
	c0,0-0.1,0-0.1,0c-0.4,0.1-0.6,0.2-0.6,0.3S22,34,22.1,34h0.3c0.5-0.1,0.9-0.2,1.3-0.4c0.7-0.5,1.4-0.8,2.2-1H26c0,0,0.1,0,0.1,0
	c0,0.1-0.1,0.1-0.1,0.2c-0.7,0.6-1.5,1-2.3,1.3c-0.2,0.1-0.4,0.2-0.6,0.2C22.9,34.4,22.6,34.4,22.3,34.5"/>
<path class="st0" d="M23.3,35.2c-0.8,0.1-1.2-0.1-1.5-0.5c0.2,0,0.4,0,0.6,0c0.7-0.1,1.4-0.3,2-0.7c0.4-0.2,0.8-0.4,1.2-0.5
	c0.2,0,0.3,0,0.3,0.1s0,0.1-0.1,0.1l-2.1,0.9c-0.1,0-0.2,0.1-0.2,0.2s0.1,0.1,0.1,0.1c0.5-0.1,1-0.3,1.4-0.6
	c0.3-0.2,0.7-0.3,1.1-0.4h0.1c0.1,0,0.1,0,0.1,0s0,0.1-0.1,0.1c-0.9,0.5-1.8,0.9-2.8,1.2L23.3,35.2"/>
<path class="st0" d="M21.5,33.4c-0.2,0-0.5-0.1-0.6-0.2l0,0c0.4-0.1,0.8-0.3,1.1-0.7c0.2-0.2,0.4-0.4,0.7-0.5
	c0.1-0.1,0.2-0.1,0.3-0.1c0.2,0,0.3-0.1,0.5-0.2c0.2-0.2,0.5-0.3,0.8-0.3c0.2,0,0.3,0,0.5,0.1c0.1,0.1,0.1,0.1,0.1,0.1h-0.3
	c-0.3,0-0.6,0.2-0.9,0.4l-0.8,0.2c-0.2,0.1-0.4,0.2-0.4,0.3s0,0.1,0.1,0h0.1l0.4-0.1c0.1,0,0.3-0.1,0.4-0.2c0.2-0.1,0.3-0.2,0.5-0.2
	c0.2,0,0.4-0.1,0.6-0.2l0.3-0.1l0,0c0.1,0,0.1,0,0.1,0.1c0,0,0,0,0,0c0,0.1,0,0.2-0.1,0.2c0,0,0,0,0,0c-0.2,0-0.3,0.1-0.5,0.1
	c-0.3,0.1-0.5,0.1-0.8,0.2c-0.7,0.3-1.4,0.6-2,0.9C21.6,33.3,21.6,33.3,21.5,33.4"/>
<path class="st0" d="M26.5,32.1c-0.1,0-0.2,0-0.2-0.1c0-0.1,0-0.1,0.1-0.2c0-0.1,0.2-0.3,0.5-0.4c0.5-0.3,1-0.8,1.4-1.3
	c0.4-0.6,1-1.1,1.6-1.5c0.3-0.2,0.6-0.5,0.9-0.7c0.1-0.1,0.1-0.1,0.2-0.1s0,0,0,0.1c-0.2,0.5-0.6,1-1.1,1.2c-0.6,0.4-1.2,1-1.7,1.6
	c-0.1,0.1-0.1,0.2,0,0.2l0,0c0,0,0.1,0,0.3-0.2c0.4-0.5,0.9-0.9,1.4-1.3c0.5-0.3,0.9-0.8,1.1-1.3C30.9,28,31,28,31,28
	c0,0.1,0,0.2,0,0.3c-0.1,0.6-0.4,1.1-0.8,1.4c-0.6,0.6-1.3,1.1-2,1.5c-0.6,0.1-1.1,0.3-1.4,0.8C26.7,32,26.6,32.1,26.5,32.1"/>
<path class="st0" d="M29,31.6h-0.5H28c-0.1,0-0.1,0-0.1,0s0-0.1,0.1-0.1c1.2-0.4,2.3-1.2,3-2.3c0.1-0.1,0.1-0.1,0.2-0.1h0.1
	c0,0,0,0.1,0,0.1c-0.4,0.7-0.9,1.2-1.6,1.6l-0.2,0.1c-0.1,0.1-0.2,0.2-0.1,0.2c0,0,0.1,0,0.1,0h0.1c0.8-0.5,1.5-1.2,2-2
	c0-0.1,0.1-0.1,0.1-0.1s0,0,0,0.1c0.1,0.2-0.1,0.5-0.5,0.9c-0.4,0.5-0.9,0.9-1.4,1.2C29.4,31.4,29.2,31.4,29,31.6"/>
<path class="st0" d="M27.3,30.8L27.3,30.8c-0.1,0-0.1-0.1-0.1-0.2c0.1-0.3,0.1-0.6,0.2-0.9c0.1-0.4,0.3-0.7,0.6-0.9
	c0.5-0.4,1-0.9,1.4-1.4h0c0,0,0,0,0,0.1s-0.2,0.4-0.5,0.7s-0.4,0.4-0.6,0.6l-0.5,0.6c0,0.1-0.1,0.2,0,0.2l0,0h0.1
	c0.1,0,0.2-0.1,0.2-0.2c0.3-0.4,0.7-0.9,1.1-1.2c0.1-0.1,0.1-0.1,0.1-0.1s0,0,0,0.2c-0.1,0.3-0.3,0.5-0.5,0.7
	c-0.4,0.3-0.7,0.7-0.9,1.1C27.7,30.4,27.5,30.6,27.3,30.8"/>
<path class="st0" d="M31.3,27.9c0,0-0.1,0-0.1-0.1c0-0.1,0-0.1,0-0.2c0.4-0.5,0.7-1.1,0.7-1.8l0.1-0.4c0.3-0.9,0.7-1.7,1.2-2.5
	c0.1-0.1,0.1-0.1,0.2-0.1s0,0,0,0.2c-0.2,0.6-0.4,1.1-0.7,1.7c-0.2,0.4-0.4,0.8-0.5,1.2c0,0.1,0,0.2,0,0.2l0,0h0
	c0.1,0,0.1,0,0.1-0.1c0.4-0.6,0.7-1.2,0.8-1.9c0.1-0.5,0.3-1,0.5-1.4c0.1-0.2,0.1-0.2,0.1-0.2s0,0,0,0.2c-0.1,1.1-0.4,2.2-1,3.1
	c-0.1,0.2-0.3,0.3-0.4,0.4c-0.2,0.1-0.3,0.3-0.4,0.5c-0.2,0.4-0.4,0.7-0.7,1C31.4,27.8,31.3,27.8,31.3,27.9"/>
<path class="st0" d="M31.5,26.4c0,0-0.1,0-0.1-0.1c-0.7-1.1,0-2.5,0.8-3.4c0.1-0.1,0.1-0.1,0.2-0.1c0,0,0,0.1,0,0.1c0,0,0,0,0,0
	c-0.2,0.2-0.3,0.5-0.3,0.8c0,0.3-0.2,0.5-0.3,0.7c-0.1,0.1-0.1,0.2-0.2,0.3c-0.1,0.2-0.1,0.4-0.1,0.5h0.1c0,0,0.1-0.1,0.1-0.1
	c0.2-0.4,0.4-0.8,0.5-1.2c0.1-0.4,0.2-0.7,0.4-1c0,0,0.1-0.1,0.1-0.1h0.1c0,0.1,0,0.1,0,0.2c-0.2,0.6-0.5,1.2-0.8,1.8
	c-0.2,0.3-0.3,0.6-0.3,0.9C31.6,26.1,31.5,26.4,31.5,26.4"/>
<path class="st0" d="M32.5,26.9L32.5,26.9c-0.1,0-0.1,0,0-0.2c0.5-0.4,0.9-1,1.1-1.6c0-0.6,0.3-1.1,0.8-1.4l0.2-0.1
	c0,0,0,0.1-0.1,0.2c-0.2,0.3-0.4,0.7-0.5,1.1c-0.1,0.4-0.3,0.7-0.5,1c-0.1,0.1-0.1,0.2-0.1,0.2h0.1c0,0,0.1,0,0.1,0
	c0.2-0.3,0.4-0.6,0.5-1c0.2-0.5,0.4-1,0.7-1.4c0.1-0.1,0.1-0.1,0.2-0.1s0,0,0,0.2c-0.1,0.3-0.2,0.6-0.3,0.8
	c-0.1,0.6-0.4,1.1-0.7,1.6c-0.1,0.1-0.3,0.2-0.5,0.3l-0.3,0.1l-0.3,0.1C32.7,26.9,32.6,26.9,32.5,26.9"/>
<path class="st0" d="M33.6,21c-0.1,0-0.1,0-0.2-0.1c-0.7-0.5-0.8-1.4-0.5-2.8c0-0.1,0-0.1,0-0.1h0c0.2,0.2,0.2,0.4,0.1,0.7
	c-0.1,0.5-0.1,1,0.1,1.5c0,0.1,0.1,0.1,0.1,0.1l0,0l0,0c0,0,0-0.1,0-0.1c-0.1-0.4-0.2-0.7-0.1-1.1c0-0.1,0-0.2,0-0.3
	c0,0,0-0.1,0-0.1l0,0h0.1c0.1,0.1,0.2,0.3,0.1,0.9c-0.1,0.3-0.1,0.6,0,0.9c0.1,0.2,0.1,0.4,0,0.6c0,0.1,0,0.1-0.1,0.1"/>
<path class="st0" d="M33.8,22.4c0,0-0.1,0-0.1,0c0,0,0-0.1,0-0.2c0-0.3,0.1-0.6,0.1-0.9c0.1-0.3,0.1-0.7,0.1-1
	c-0.1-0.8,0-1.7,0.4-2.4c0,0,0.1-0.1,0.1-0.1c0,0,0.1,0,0.1,0.1c0.1,0.3,0,0.7-0.2,1c-0.1,0.4-0.2,0.9-0.1,1.4c0,0,0,0.1,0,0.1
	c0,0,0.1,0,0.1,0c0.1,0,0.1-0.1,0.2-0.2c-0.1-0.5,0-0.9,0.2-1.4c0.1-0.3,0.2-0.6,0.1-1c0-0.1,0-0.1,0-0.1s0,0,0.1,0.1
	s0.2,0.2,0.2,0.7c0,0.6-0.1,1.1-0.2,1.6c-0.1,0.2-0.2,0.5-0.4,0.7c-0.2,0.2-0.3,0.5-0.4,0.7c-0.1,0.2-0.1,0.4-0.1,0.6
	C33.9,22.3,33.8,22.4,33.8,22.4C33.7,22.4,33.7,22.4,33.8,22.4"/>
<path class="st0" d="M34.4,21.6L34.4,21.6c0,0,0-0.1,0-0.2l0.7-1.1c0.2-0.6,0.3-1.2,0.2-1.8c0-0.1,0-0.1,0-0.2l0,0h0.1
	c0.1,0.1,0.2,0.2,0.2,0.4l-0.2,0.9l-0.1,0.6c0,0,0,0.1,0,0.1l0,0h0.1c0,0,0.1-0.1,0.1-0.2c0-0.3,0.1-0.6,0.2-0.8
	c0.1-0.4,0.1-0.8,0-1.2c0,0,0-0.1,0-0.1c0,0,0,0,0.1,0.1c0.2,0.2,0.3,0.5,0.2,0.8c-0.1,0.2-0.1,0.4-0.1,0.6c0,0.3-0.1,0.6-0.2,0.8
	l-1,0.9C34.5,21.5,34.4,21.5,34.4,21.6"/>
</svg>
